# Exported from Wings 3D 0.98.32a
mtllib hand.mtl
o cube2
#86 vertices, 168 faces
v -4.0000000e-2 -4.0000000e-2 -9.0000000e-2
v -2.0000000e-2 -2.4000000e-2 -1.0000000e-2
v 2.0000000e-2 -2.4000000e-2 -1.0000000e-2
v 0.0000000e+0 -4.0000000e-2 -9.0000000e-2
v -4.0000000e-2 4.0000000e-2 -9.0000000e-2
v -2.0000000e-2 2.4000000e-2 -1.0000000e-2
v 2.0000000e-2 2.4000000e-2 -1.0000000e-2
v 0.0000000e+0 4.0000000e-2 -9.0000000e-2
v -1.2000000e-2 -1.6000000e-2 -1.0000000e-2
v 1.2000000e-2 -1.6000000e-2 -1.0000000e-2
v 1.2000000e-2 1.6000000e-2 -1.0000000e-2
v -1.2000000e-2 1.6000000e-2 -1.0000000e-2
v -1.2000000e-2 -1.6000000e-2 1.0000000e-2
v 1.2000000e-2 -1.6000000e-2 1.0000000e-2
v 1.2000000e-2 1.6000000e-2 1.0000000e-2
v -1.2000000e-2 1.6000000e-2 1.0000000e-2
v -1.0312000e-2 -3.5096160e-2 -9.0000000e-2
v -2.9688000e-2 -3.5096160e-2 -9.0000000e-2
v -2.9688000e-2 3.5096160e-2 -9.0000000e-2
v -1.0312000e-2 3.5096160e-2 -9.0000000e-2
v -2.9688000e-2 2.4743840e-2 -9.0000000e-2
v -2.9688000e-2 5.1761600e-3 -9.0000000e-2
v -2.9688000e-2 -5.1761600e-3 -9.0000000e-2
v -2.9688000e-2 -2.4743840e-2 -9.0000000e-2
v -1.0312000e-2 -2.4743840e-2 -9.0000000e-2
v -1.0312000e-2 -5.1761600e-3 -9.0000000e-2
v -1.0312000e-2 5.1761600e-3 -9.0000000e-2
v -1.0312000e-2 2.4743840e-2 -9.0000000e-2
v -6.0000000e-3 2.2440000e-2 -0.14000000
v -3.4000000e-2 2.2440000e-2 -0.14000000
v -3.4000000e-2 3.7400000e-2 -0.14000000
v -6.0000000e-3 3.7400000e-2 -0.14000000
v -6.0000000e-3 -7.4800000e-3 -0.14000000
v -3.4000000e-2 -7.4800000e-3 -0.14000000
v -3.4000000e-2 7.4800000e-3 -0.14000000
v -6.0000000e-3 7.4800000e-3 -0.14000000
v -3.4000000e-2 -2.2440000e-2 -0.14000000
v -6.0000000e-3 -2.2440000e-2 -0.14000000
v -6.0000000e-3 -3.7400000e-2 -0.14000000
v -3.4000000e-2 -3.7400000e-2 -0.14000000
v -1.8000000e-3 2.0196000e-2 -0.14000000
v -3.8200000e-2 2.0196000e-2 -0.14000000
v -3.8200000e-2 3.9644000e-2 -0.14000000
v -1.8000000e-3 3.9644000e-2 -0.14000000
v -1.8000000e-3 -9.7240000e-3 -0.14000000
v -3.8200000e-2 -9.7240000e-3 -0.14000000
v -3.8200000e-2 9.7240000e-3 -0.14000000
v -1.8000000e-3 9.7240000e-3 -0.14000000
v -3.8200000e-2 -2.0196000e-2 -0.14000000
v -1.8000000e-3 -2.0196000e-2 -0.14000000
v -1.8000000e-3 -3.9644000e-2 -0.14000000
v -3.8200000e-2 -3.9644000e-2 -0.14000000
v 2.5761662e-2 2.5602544e-2 -0.18910000
v -5.7616623e-3 2.0196000e-2 -0.17090000
v -5.7616623e-3 3.9644000e-2 -0.17090000
v 2.5761662e-2 3.4237456e-2 -0.18910000
v 2.5761662e-2 -4.3174560e-3 -0.18910000
v -5.7616623e-3 -9.7240000e-3 -0.17090000
v -5.7616623e-3 9.7240000e-3 -0.17090000
v 2.5761662e-2 4.3174560e-3 -0.18910000
v -5.7616623e-3 -2.0196000e-2 -0.17090000
v 2.5761662e-2 -2.5602544e-2 -0.18910000
v 2.5761662e-2 -3.4237456e-2 -0.18910000
v -5.7616623e-3 -3.9644000e-2 -0.17090000
v -3.5867200e-2 -3.6693760e-2 -7.3468800e-2
v 4.1328000e-3 -3.6693760e-2 -7.3468800e-2
v 5.6025318e-3 -6.8794007e-2 -6.0181597e-2
v 3.8084391e-2 -4.6418142e-2 -6.6833625e-2
v 5.6069696e-2 -5.7786345e-2 -5.3330559e-2
v 2.3587837e-2 -8.0162210e-2 -4.6678531e-2
v 1.7179736e-2 -6.5570345e-2 -5.9115254e-2
v 3.3701309e-2 -5.4189085e-2 -6.2498741e-2
v 4.4492492e-2 -6.1010006e-2 -5.4396902e-2
v 2.7970919e-2 -7.2391266e-2 -5.1013415e-2
v 3.9539787e-2 -9.1291858e-2 -0.10048494
v 2.8748604e-2 -8.1839675e-2 -0.10526207
v 4.5270177e-2 -7.0043338e-2 -0.10391022
v 5.6061360e-2 -7.9495521e-2 -9.9133087e-2
v 3.7247631e-2 -9.9791265e-2 -9.9114824e-2
v 1.7823502e-2 -8.2777337e-2 -0.10771367
v 4.7562333e-2 -6.1543930e-2 -0.10528034
v 6.6986462e-2 -7.8557859e-2 -9.6681493e-2
v 3.9169056e-2 -9.7591061e-2 -0.14179654
v 3.2623526e-2 -7.8202828e-2 -0.17528386
v 4.5827567e-2 -6.8775196e-2 -0.17420346
v 6.8907888e-2 -7.6357655e-2 -0.13936321
vn -0.20358240 -0.20577283 -0.95718951
vn -0.26832226 -0.35083838 0.89717088
vn 0.56266996 2.2558089e-2 0.82637379
vn 0.15532049 -0.31398329 -0.93663762
vn -0.39113970 0.39534814 -0.83108939
vn -0.56210613 0.28407703 0.77674767
vn 0.40566562 0.41003035 0.81689076
vn 0.40351404 0.20392781 -0.89195845
vn -0.40824829 -0.40824829 0.81649658
vn 0.40824829 -0.40824829 0.81649658
vn 0.40824829 0.40824829 0.81649658
vn -0.40824829 0.40824829 0.81649658
vn -0.57735027 -0.57735027 0.57735027
vn 0.57735027 -0.57735027 0.57735027
vn 0.57735027 0.57735027 0.57735027
vn -0.57735027 0.57735027 0.57735027
vn 0.42559470 -0.42672167 -0.79798357
vn -0.50696892 -0.50831137 -0.69613365
vn -0.42559470 0.42672167 -0.79798357
vn 0.50696892 0.50831137 -0.69613365
vn -0.42559470 -0.42672167 -0.79798357
vn -0.24197831 0.24261907 -0.93945861
vn -0.42559470 -0.42672167 -0.79798357
vn -0.31170657 0.31253197 -0.89730863
vn 0.42559470 0.42672167 -0.79798357
vn 0.31170657 -0.31253197 -0.89730863
vn 0.36144035 0.36239745 -0.85908612
vn 0.31170657 -0.31253197 -0.89730863
vn 0.38971286 -0.39074482 0.83393188
vn -0.38971286 -0.39074482 0.83393188
vn -0.38971286 0.39074482 0.83393188
vn 0.38971286 0.39074482 0.83393188
vn 0.38971286 -0.39074482 0.83393188
vn -0.38971286 -0.39074482 0.83393188
vn -0.38971286 0.39074482 0.83393188
vn 0.38971286 0.39074482 0.83393188
vn -0.38971286 0.39074482 0.83393188
vn 0.38971286 0.39074482 0.83393188
vn 0.38971286 -0.39074482 0.83393188
vn -0.38971286 -0.39074482 0.83393188
vn 0.32027532 -0.36507807 0.87415200
vn -0.28707188 -0.52220826 0.80304936
vn -0.39150446 0.56762034 0.72424541
vn 0.33536037 0.35045790 0.87447852
vn 0.32027532 -0.36507807 0.87415200
vn -0.28707188 -0.52220826 0.80304936
vn -0.39150446 0.56762034 0.72424541
vn 0.33536037 0.35045790 0.87447852
vn -0.39150446 0.56762034 0.72424541
vn 0.33536037 0.35045790 0.87447852
vn 0.32027532 -0.36507807 0.87415200
vn -0.28707188 -0.52220826 0.80304936
vn 0.50514363 -0.83551739 -0.21619576
vn -0.48761909 -0.50189918 -0.71437024
vn -0.50800421 0.45438382 -0.73175615
vn 0.44563512 0.83065308 -0.33380353
vn 0.50514363 -0.83551739 -0.21619576
vn -0.48761909 -0.50189918 -0.71437024
vn -0.50800421 0.45438382 -0.73175615
vn 0.44563512 0.83065308 -0.33380353
vn -0.50800421 0.45438382 -0.73175615
vn 0.44563512 0.83065308 -0.33380353
vn 0.50514363 -0.83551739 -0.21619576
vn -0.48761909 -0.50189918 -0.71437024
vn -0.75465644 -0.64755789 0.10565244
vn 0.85816070 -1.3266592e-2 -0.51320972
vn -4.8074582e-2 -0.70894503 -0.70362332
vn 0.30670618 -0.30903467 -0.90023824
vn 0.65455619 -0.57633741 -0.48927639
vn 8.4129801e-2 -0.97860521 -0.18776054
vn -0.30570270 -0.52417301 -0.79485125
vn 0.25688080 0.15580558 -0.95380128
vn 0.69893900 -0.45207018 -0.55418122
vn 0.12708540 -0.92309544 -0.36296572
vn -0.23487943 -0.38629690 0.89196769
vn -0.70328416 0.17495737 0.68904377
vn -0.12045808 0.80492775 0.58101736
vn 0.30630003 0.19326362 0.93211022
vn -0.30092983 -0.46374348 0.83329660
vn -0.69245284 0.19727368 0.69396841
vn -0.17678812 0.74145676 0.64729269
vn 0.35688039 0.17994519 0.91665485
vn 0.10143306 -0.95227618 -0.28789130
vn -0.69118201 -0.40308479 -0.59982505
vn 0.31364834 0.79096689 -0.52535331
vn 0.88793379 -0.36008221 -0.28620689
g cube2_default
usemtl default
f 1//1 4//4 65//65
f 1//1 18//18 4//4
f 1//1 24//24 18//18
f 2//2 12//12 6//6
f 2//2 69//69 3//3
f 3//3 10//10 2//2
f 3//3 69//69 66//66
f 4//4 27//27 8//8
f 5//5 7//7 8//8
f 5//5 22//22 1//1
f 5//5 65//65 6//6
f 6//6 7//7 5//5
f 6//6 12//12 7//7
f 6//6 65//65 2//2
f 7//7 10//10 3//3
f 7//7 66//66 8//8
f 8//8 20//20 5//5
f 8//8 28//28 20//20
f 8//8 66//66 4//4
f 9//9 2//2 10//10
f 9//9 12//12 2//2
f 9//9 13//13 12//12
f 10//10 7//7 11//11
f 10//10 13//13 9//9
f 11//11 7//7 12//12
f 11//11 15//15 10//10
f 12//12 15//15 11//11
f 13//13 10//10 14//14
f 14//14 10//10 15//15
f 14//14 15//15 13//13
f 15//15 12//12 16//16
f 16//16 12//12 13//13
f 16//16 13//13 15//15
f 17//17 4//4 18//18
f 17//17 25//25 4//4
f 17//17 39//39 25//25
f 18//18 39//39 17//17
f 19//19 5//5 20//20
f 19//19 31//31 21//21
f 20//20 31//31 19//19
f 21//21 5//5 19//19
f 21//21 27//27 22//22
f 21//21 29//29 28//28
f 22//22 5//5 21//21
f 22//22 35//35 23//23
f 23//23 1//1 22//22
f 23//23 25//25 24//24
f 23//23 33//33 26//26
f 24//24 1//1 23//23
f 24//24 37//37 18//18
f 25//25 23//23 26//26
f 25//25 37//37 24//24
f 26//26 4//4 25//25
f 26//26 33//33 27//27
f 27//27 4//4 26//26
f 27//27 21//21 28//28
f 27//27 35//35 22//22
f 28//28 8//8 27//27
f 28//28 29//29 20//20
f 29//29 21//21 30//30
f 29//29 44//44 32//32
f 30//30 21//21 31//31
f 30//30 42//42 29//29
f 31//31 20//20 32//32
f 31//31 42//42 30//30
f 32//32 20//20 29//29
f 32//32 44//44 31//31
f 33//33 23//23 34//34
f 33//33 48//48 36//36
f 34//34 23//23 35//35
f 34//34 46//46 33//33
f 35//35 27//27 36//36
f 35//35 46//46 34//34
f 36//36 27//27 33//33
f 36//36 48//48 35//35
f 37//37 25//25 38//38
f 37//37 52//52 40//40
f 38//38 25//25 39//39
f 38//38 50//50 37//37
f 39//39 18//18 40//40
f 39//39 50//50 38//38
f 40//40 18//18 37//37
f 40//40 52//52 39//39
f 41//41 29//29 42//42
f 41//41 44//44 29//29
f 41//41 53//53 44//44
f 42//42 31//31 43//43
f 42//42 53//53 41//41
f 43//43 31//31 44//44
f 43//43 55//55 42//42
f 44//44 55//55 43//43
f 45//45 33//33 46//46
f 45//45 48//48 33//33
f 45//45 57//57 48//48
f 46//46 35//35 47//47
f 46//46 57//57 45//45
f 47//47 35//35 48//48
f 47//47 59//59 46//46
f 48//48 59//59 47//47
f 49//49 37//37 50//50
f 49//49 52//52 37//37
f 49//49 61//61 52//52
f 50//50 39//39 51//51
f 50//50 61//61 49//49
f 51//51 39//39 52//52
f 51//51 63//63 50//50
f 52//52 63//63 51//51
f 53//53 42//42 54//54
f 54//54 42//42 55//55
f 54//54 55//55 53//53
f 55//55 44//44 56//56
f 56//56 44//44 53//53
f 56//56 53//53 55//55
f 57//57 46//46 58//58
f 58//58 46//46 59//59
f 58//58 59//59 57//57
f 59//59 48//48 60//60
f 60//60 48//48 57//57
f 60//60 57//57 59//59
f 61//61 50//50 62//62
f 62//62 50//50 63//63
f 62//62 63//63 61//61
f 63//63 52//52 64//64
f 64//64 52//52 61//61
f 64//64 61//61 63//63
f 65//65 5//5 1//1
f 65//65 67//67 2//2
f 66//66 7//7 3//3
f 66//66 65//65 4//4
f 66//66 67//67 65//65
f 67//67 66//66 68//68
f 67//67 74//74 70//70
f 68//68 66//66 69//69
f 68//68 72//72 67//67
f 69//69 2//2 70//70
f 69//69 72//72 68//68
f 70//70 2//2 67//67
f 70//70 74//74 69//69
f 71//71 67//67 72//72
f 71//71 74//74 67//67
f 71//71 76//76 74//74
f 72//72 69//69 73//73
f 72//72 76//76 71//71
f 73//73 69//69 74//74
f 73//73 78//78 72//72
f 74//74 78//78 73//73
f 75//75 74//74 76//76
f 75//75 78//78 74//74
f 75//75 79//79 78//78
f 76//76 72//72 77//77
f 76//76 79//79 75//75
f 77//77 72//72 78//78
f 77//77 81//81 76//76
f 78//78 81//81 77//77
f 79//79 76//76 80//80
f 79//79 86//86 82//82
f 80//80 76//76 81//81
f 80//80 84//84 79//79
f 81//81 78//78 82//82
f 81//81 84//84 80//80
f 82//82 78//78 79//79
f 82//82 86//86 81//81
f 83//83 79//79 84//84
f 83//83 86//86 79//79
f 84//84 81//81 85//85
f 84//84 86//86 83//83
f 85//85 81//81 86//86
f 85//85 86//86 84//84
