# Exported from Wings 3D 0.98.32a
mtllib head.mtl
o cube2
#43 vertices, 82 faces
v -5.8074749e-2 -6.0000000e-2 -1.8307935e-2
v -0.17807475 -6.0000000e-2 -7.7622257e-3
v -0.16444249 -6.0000000e-2 0.10169207
v -5.8074749e-2 -6.0000000e-2 9.7792106e-2
v -5.8074749e-2 6.0000000e-2 -1.8307935e-2
v -0.17807475 6.0000000e-2 -7.7622257e-3
v -0.16444249 6.0000000e-2 0.10169207
v -5.8074749e-2 6.0000000e-2 9.7792106e-2
v -3.4074749e-2 -4.2000000e-2 6.6502305e-2
v -3.4074749e-2 -4.2000000e-2 1.6881825e-2
v -3.4074749e-2 4.2000000e-2 1.6881825e-2
v -3.4074749e-2 4.2000000e-2 6.6502305e-2
v -0.19225544 7.5299100e-18 0.12297682
v -5.8074749e-2 7.8483044e-18 0.12817677
v -3.4074749e-2 5.1244918e-18 8.3692065e-2
v -0.20588770 -4.7528355e-19 -7.7622257e-3
v -0.13807475 -6.0000000e-2 0.10169207
v -9.8074749e-2 -6.0000000e-2 0.10169207
v -0.13807475 6.0000000e-2 0.10169207
v -9.8074749e-2 6.0000000e-2 0.10169207
v -0.13300486 8.6283706e-18 0.14091664
v -0.10734573 8.6283706e-18 0.14091664
v -0.13532613 -6.0000000e-2 2.0576127e-2
v -0.13532613 6.0000000e-2 2.0576127e-2
v -0.13807475 -4.4185133e-2 9.1130189e-2
v -9.8074749e-2 -4.4185133e-2 9.1130189e-2
v -0.13807475 4.4185133e-2 9.1130189e-2
v -9.8074749e-2 4.4185133e-2 9.1130189e-2
v -0.13300486 7.5800363e-18 0.12379547
v -0.10734573 7.5800363e-18 0.12379547
v -0.13532613 -4.4185133e-2 2.0576127e-2
v -0.13532613 4.4185133e-2 2.0576127e-2
v -5.8074749e-2 -1.1210006e-18 -1.8307935e-2
v -0.13198123 -3.7735406e-18 -6.1628630e-2
v -0.12502799 -5.6116320e-2 -3.9968282e-2
v -0.12502799 5.6116320e-2 -3.9968282e-2
v 1.5594118e-2 -9.1231392e-2 7.6327161e-2
v 1.5594118e-2 -9.1231392e-2 7.0569704e-3
v 1.5594118e-2 9.1231392e-2 7.0569704e-3
v 1.5594118e-2 9.1231392e-2 7.6327161e-2
v 1.5594118e-2 6.1428744e-18 0.10032407
v -3.4074749e-2 -1.8854928e-20 -3.0793451e-4
v 1.5594118e-2 -1.0372376e-18 -1.6939935e-2
vn 0.15894260 -0.81916916 0.55108904
vn 0.15894260 0.81916916 0.55108904
vn 0.59750450 -1.6599327e-17 0.80186555
vn 0.38773309 -1.8949874e-17 0.92177169
vn -0.90647928 8.5494224e-17 -0.42225029
vn 0.55373194 -6.6868131e-17 -0.83269499
vn -7.4200582e-2 -1.0720387e-16 -0.99724334
vn 0.56743715 -0.60063905 0.56324756
vn -0.41510893 -0.68739226 -0.59596683
vn -7.6970157e-2 0.75332418 -0.65312960
vn -8.4301174e-2 0.72685065 0.68160212
vn 0.41163813 1.4306398e-17 0.91134738
vn 0.21366004 -4.1041759e-17 -0.97690808
vn 0.79159338 -5.0438416e-17 -0.61104822
vn 0.24559689 -0.96925988 -1.4746107e-2
vn 0.58543900 -0.13448092 -0.79948487
vn 0.24559689 -0.96925988 -1.4746107e-2
vn 0.24559689 -0.96925988 -1.4746107e-2
vn 0.58543900 -0.13448092 -0.79948487
vn 0.58543900 -0.13448092 -0.79948487
vn 0.24559689 -0.96925988 -1.4746107e-2
vn 0.58543900 -0.13448092 -0.79948487
vn 0.24559689 -0.96925988 -1.4746107e-2
vn -0.81029831 -0.43114844 -0.39689757
vn 1.2714369e-2 -0.99973521 -1.9179723e-2
vn -0.81029831 -0.43114844 -0.39689757
vn -0.81029831 -0.43114844 -0.39689757
vn 1.2714369e-2 -0.99973521 -1.9179723e-2
vn 1.2714369e-2 -0.99973521 -1.9179723e-2
vn -0.81029831 -0.43114844 -0.39689757
vn 0.0000000e+0 -0.33433223 0.94245528
vn 0.0000000e+0 -1.00000000 2.2540097e-16
vn -0.88620457 -0.44995436 0.11037456
vn 0.46938825 -0.77265361 0.42741206
vn 0.46938825 -0.77265361 0.42741206
vn 0.46938825 -0.77265361 0.42741206
vn 0.46938825 -0.77265361 0.42741206
vn 0.58543900 0.13448092 -0.79948487
vn 0.24559689 0.96925988 -1.4746107e-2
vn 0.24559689 0.96925988 -1.4746107e-2
vn 0.58543900 0.13448092 -0.79948487
vn 0.58543900 0.13448092 -0.79948487
vn 0.24559689 0.96925988 -1.4746107e-2
vn 0.58543900 0.13448092 -0.79948487
vn 0.24559689 0.96925988 -1.4746107e-2
vn 0.24559689 0.96925988 -1.4746107e-2
vn 1.2714369e-2 0.99973521 -1.9179723e-2
vn -0.81029831 0.43114844 -0.39689757
vn -0.81029831 0.43114844 -0.39689757
vn 1.2714369e-2 0.99973521 -1.9179723e-2
vn -0.81029831 0.43114844 -0.39689757
vn -0.81029831 0.43114844 -0.39689757
vn 1.2714369e-2 0.99973521 -1.9179723e-2
vn -0.88620457 0.44995436 0.11037456
vn 0.0000000e+0 0.33433223 0.94245528
vn 0.0000000e+0 1.00000000 -7.5133657e-17
vn 0.46938825 0.77265361 0.42741206
vn 0.46938825 0.77265361 0.42741206
vn 0.46938825 0.77265361 0.42741206
vn 0.46938825 0.77265361 0.42741206
vn 0.10814528 -0.84008113 -0.53157152
vn 0.10814528 -0.84008113 -0.53157152
vn 0.10814528 -0.84008113 -0.53157152
vn 0.10814528 -0.84008113 -0.53157152
vn 0.10814528 0.84008113 -0.53157152
vn 0.10814528 0.84008113 -0.53157152
vn 0.10814528 0.84008113 -0.53157152
vn 0.10814528 0.84008113 -0.53157152
vn -0.13951693 0.0000000e+0 0.99021969
vn -0.99352965 -1.5410436e-16 0.11357301
vn -0.99352965 -1.6951479e-16 0.11357301
vn -0.13951693 0.0000000e+0 0.99021969
vn -0.99352965 -1.6951479e-16 0.11357301
vn -0.99352965 -1.5410436e-16 0.11357301
vn -0.13951693 0.0000000e+0 0.99021969
vn -0.13951693 0.0000000e+0 0.99021969
vn -0.12591192 -0.43072160 0.89365826
vn -2.7730588e-17 -1.00000000 -9.6186775e-18
vn 0.99960120 -2.8161013e-2 -2.0978180e-3
vn 0.99960120 -2.8161013e-2 -2.0978180e-3
vn 0.99960120 -2.8161013e-2 -2.0978180e-3
vn 0.99960120 -2.8161013e-2 -2.0978180e-3
vn -2.7730588e-17 -1.00000000 -9.6186775e-18
vn -0.12591192 -0.43072160 0.89365826
vn 2.0400254e-17 -1.00000000 8.5914354e-17
vn 0.15137290 -0.48188118 0.86306244
vn -0.98193891 1.2376081e-2 0.18879301
vn -0.98193891 1.2376081e-2 0.18879301
vn 2.0400254e-17 -1.00000000 8.5914354e-17
vn -0.98193891 1.2376081e-2 0.18879301
vn -0.98193891 1.2376081e-2 0.18879301
vn 0.15137290 -0.48188118 0.86306244
vn 2.7730588e-17 1.00000000 -1.5988599e-16
vn -0.12591192 0.43072160 0.89365826
vn 0.99960120 2.8161013e-2 -2.0978180e-3
vn 0.99960120 2.8161013e-2 -2.0978180e-3
vn 0.99960120 2.8161013e-2 -2.0978180e-3
vn 0.99960120 2.8161013e-2 -2.0978180e-3
vn -0.12591192 0.43072160 0.89365826
vn 2.7730588e-17 1.00000000 -1.5988599e-16
vn 0.15137290 0.48188118 0.86306244
vn -2.0400254e-17 1.00000000 -7.4708134e-18
vn -0.98193891 -1.2376081e-2 0.18879301
vn -0.98193891 -1.2376081e-2 0.18879301
vn -0.98193891 -1.2376081e-2 0.18879301
vn -0.98193891 -1.2376081e-2 0.18879301
vn 0.15137290 0.48188118 0.86306244
vn -2.0400254e-17 1.00000000 -7.4708134e-18
vn -0.28978681 0.0000000e+0 0.95709122
vn 1.00000000 -2.0890865e-17 -1.6359025e-15
vn 1.00000000 -2.0890865e-17 -1.6359025e-15
vn -0.28978681 0.0000000e+0 0.95709122
vn 0.25033443 0.0000000e+0 0.96815943
vn -1.00000000 0.0000000e+0 8.4433679e-16
vn -1.00000000 0.0000000e+0 8.4433679e-16
vn 0.25033443 0.0000000e+0 0.96815943
vn 7.3078786e-4 -0.99949116 -3.1888604e-2
vn -0.90875378 0.0000000e+0 0.41733268
vn 7.3078786e-4 -0.99949116 -3.1888604e-2
vn 7.3078786e-4 -0.99949116 -3.1888604e-2
vn 0.99942639 0.0000000e+0 3.3865652e-2
vn 7.3078786e-4 -0.99949116 -3.1888604e-2
vn 7.3078786e-4 0.99949116 -3.1888604e-2
vn 0.99942639 0.0000000e+0 3.3865652e-2
vn 7.3078786e-4 0.99949116 -3.1888604e-2
vn 7.3078786e-4 0.99949116 -3.1888604e-2
vn -0.90875378 0.0000000e+0 0.41733268
vn 7.3078786e-4 0.99949116 -3.1888604e-2
vn 0.0000000e+0 -0.89288018 0.45029434
vn 0.0000000e+0 -0.89288018 0.45029434
vn 0.99967577 -1.4141571e-2 -2.1174936e-2
vn 0.99967577 -1.4141571e-2 -2.1174936e-2
vn 0.0000000e+0 -0.80587572 0.59208473
vn 0.0000000e+0 -0.80587572 0.59208473
vn -0.98121543 0.10714091 0.16042786
vn 0.0000000e+0 -0.80587572 0.59208473
vn -0.98121543 0.10714091 0.16042786
vn 0.0000000e+0 0.80587572 0.59208473
vn 0.0000000e+0 0.80587572 0.59208473
vn 0.99967577 1.4141571e-2 -2.1174936e-2
vn 0.99967577 1.4141571e-2 -2.1174936e-2
vn 0.0000000e+0 0.80587572 0.59208473
vn 0.0000000e+0 0.89288018 0.45029434
vn 0.0000000e+0 0.89288018 0.45029434
vn -0.98121543 -0.10714091 0.16042786
vn -0.98121543 -0.10714091 0.16042786
vn 0.0000000e+0 -0.59447002 0.80411778
vn 0.99917088 -1.2183706e-17 -4.0712944e-2
vn 0.99917088 -1.0443176e-17 -4.0712944e-2
vn 0.99917088 -1.0443176e-17 -4.0712944e-2
vn 0.99917088 -1.2183706e-17 -4.0712944e-2
vn 0.0000000e+0 -0.59447002 0.80411778
vn 0.0000000e+0 0.59447002 0.80411778
vn 0.0000000e+0 0.59447002 0.80411778
vn -0.99724327 3.5079884e-18 -7.4201463e-2
vn -0.99724327 0.0000000e+0 -7.4201463e-2
vn -0.99724327 0.0000000e+0 -7.4201463e-2
vn -0.99724327 -3.5079884e-18 -7.4201463e-2
vn 0.0000000e+0 -0.59447002 0.80411778
vn 0.0000000e+0 0.59447002 0.80411778
vn 0.0000000e+0 -1.00000000 0.0000000e+0
vn 0.99925303 1.2995721e-2 3.6393504e-2
vn -0.88692357 0.15061292 0.43667188
vn 0.99925303 1.2995721e-2 3.6393504e-2
vn -0.88692357 0.15061292 0.43667188
vn 0.0000000e+0 1.00000000 1.5366970e-16
vn -0.88692357 -0.15061292 0.43667188
vn 0.99925303 -1.2995721e-2 3.6393504e-2
vn -0.88692357 -0.15061292 0.43667188
vn 0.99925303 -1.2995721e-2 3.6393504e-2
vn -0.10090816 -0.36911545 -0.92388924
vn 1.4613371e-3 -0.99796376 -6.3766794e-2
vn 1.4613371e-3 -0.99796376 -6.3766794e-2
vn -0.10090816 -0.36911545 -0.92388924
vn -0.10090816 0.36911545 -0.92388924
vn 1.4613371e-3 0.99796376 -6.3766794e-2
vn -0.10090816 0.36911545 -0.92388924
vn 1.4613371e-3 0.99796376 -6.3766794e-2
g cube2_default
usemtl default
f 1//17 9//1 4//34
f 1//15 18//85 23//117
f 1//16 34//7 33//6
f 1//20 42//13 10//61
f 2//24 13//70 16//5
f 2//25 17//78 3//32
f 2//28 35//173 23//120
f 3//33 13//73 2//30
f 4//37 9//1 14//3
f 4//36 18//89 1//21
f 5//40 20//102 8//57
f 5//43 36//178 24//126
f 5//44 42//13 33//6
f 6//48 13//71 7//54
f 6//47 19//93 24//123
f 6//49 34//7 16//5
f 7//55 13//76 19//99
f 7//56 19//100 6//53
f 8//60 12//2 5//45
f 8//59 14//3 12//2
f 8//58 20//107 14//3
f 9//1 1//23 10//64
f 9//1 41//12 15//4
f 10//62 38//9 9//1
f 10//63 42//13 38//9
f 11//66 5//39 12//2
f 11//68 39//10 42//13
f 12//2 14//3 15//4
f 12//2 39//10 11//67
f 13//75 17//84 21//112
f 14//3 18//86 4//35
f 14//3 20//101 22//113
f 15//4 14//3 9//1
f 15//4 41//12 12//2
f 16//5 13//74 6//52
f 16//5 34//7 2//27
f 17//77 13//69 3//31
f 17//79 31//162 25//131
f 18//88 30//155 26//135
f 18//87 31//163 23//118
f 19//96 29//148 27//140
f 19//95 32//168 24//124
f 20//104 30//156 22//114
f 20//103 32//167 28//145
f 21//110 17//80 29//149
f 21//109 19//94 13//72
f 22//116 18//92 14//3
f 22//115 30//157 18//90
f 23//122 17//83 2//29
f 23//121 31//164 17//82
f 23//119 35//172 1//18
f 24//128 20//108 5//46
f 24//127 32//169 20//106
f 24//125 36//176 6//50
f 25//132 29//151 17//81
f 25//129 31//161 26//133
f 26//134 29//147 25//130
f 26//137 31//165 18//91
f 27//138 30//154 28//143
f 27//141 32//170 19//97
f 28//146 30//158 20//105
f 28//144 32//166 27//139
f 29//150 19//98 21//111
f 29//152 26//136 30//159
f 30//160 27//142 29//153
f 33//6 34//7 5//42
f 33//6 42//13 1//22
f 34//7 1//19 35//174
f 34//7 6//51 36//177
f 35//171 2//26 34//7
f 36//175 5//41 34//7
f 37//8 9//1 38//9
f 37//8 41//12 9//1
f 37//8 43//14 41//12
f 38//9 42//13 43//14
f 38//9 43//14 37//8
f 39//10 12//2 40//11
f 39//10 41//12 43//14
f 40//11 12//2 41//12
f 40//11 41//12 39//10
f 42//13 5//38 11//65
f 43//14 42//13 39//10
