# Exported from Wings 3D 0.98.32a
mtllib upper_arm.mtl
o cube1
#26 vertices, 48 faces
v -6.4000000e-2 -4.8283902e-2 -0.11792308
v -3.8400000e-2 -4.8283902e-2 0.17007692
v 3.8400000e-2 -4.8283902e-2 0.17007692
v 6.4000000e-2 -4.8283902e-2 -0.11792308
v -6.4000000e-2 -3.1840293e-2 -0.11792308
v -3.8400000e-2 -1.6283902e-2 0.17007692
v 3.8400000e-2 -1.6283902e-2 0.17007692
v 6.4000000e-2 -3.1840293e-2 -0.11792308
v -5.1200000e-2 4.7716098e-2 -8.5923077e-2
v -5.1200000e-2 4.7716098e-2 4.2076923e-2
v 5.1200000e-2 4.7716098e-2 4.2076923e-2
v 5.1200000e-2 4.7716098e-2 -8.5923077e-2
v 6.4000000e-2 -4.8283902e-2 2.6076923e-2
v 6.4000000e-2 -1.6283902e-2 2.6076923e-2
v -6.4000000e-2 -4.8283902e-2 2.6076923e-2
v -6.4000000e-2 -1.6283902e-2 2.6076923e-2
v -5.7600000e-2 1.5716098e-2 -0.10192308
v 5.7600000e-2 1.5716098e-2 -0.10192308
v -3.7888000e-2 -1.3094266e-2 -0.11792308
v 3.7888000e-2 -1.3094266e-2 -0.11792308
v -3.4099200e-2 1.5716098e-2 -0.10192308
v 3.4099200e-2 1.5716098e-2 -0.10192308
v -3.7888000e-2 -1.3094266e-2 -0.40592308
v -3.4099200e-2 1.5716098e-2 -0.38992308
v 3.4099200e-2 1.5716098e-2 -0.38992308
v 3.7888000e-2 -1.3094266e-2 -0.40592308
vn 0.99185335 0.11445868 5.5911885e-2
vn -0.99424680 8.5889565e-2 6.4002177e-2
vn 1.0100270e-15 0.0000000e+0 -1.00000000
vn -1.00000000 3.7645909e-16 0.0000000e+0
vn 0.0000000e+0 -1.00000000 4.7057386e-17
vn 0.0000000e+0 -1.00000000 4.7057386e-17
vn -1.00000000 3.7645909e-16 0.0000000e+0
vn 1.0100270e-15 0.0000000e+0 -1.00000000
vn 0.0000000e+0 -1.00000000 7.8428977e-17
vn 0.0000000e+0 0.0000000e+0 1.00000000
vn -0.98456251 -1.8532375e-16 0.17503333
vn 0.0000000e+0 0.0000000e+0 1.00000000
vn -0.98456251 -1.8532375e-16 0.17503333
vn 0.0000000e+0 -1.00000000 8.6271874e-17
vn 0.98456251 0.0000000e+0 0.17503333
vn 0.0000000e+0 -1.00000000 8.6271874e-17
vn 0.0000000e+0 0.0000000e+0 1.00000000
vn 1.00000000 0.0000000e+0 0.0000000e+0
vn 0.0000000e+0 -1.00000000 9.4114772e-17
vn -6.7335131e-16 0.0000000e+0 -1.00000000
vn -6.7335131e-16 0.0000000e+0 -1.00000000
vn -6.7335131e-16 0.0000000e+0 -1.00000000
vn -0.12438289 0.17325730 -0.97699069
vn -0.99756663 6.9316300e-2 -7.4882737e-3
vn -0.99756663 6.9316300e-2 -7.4882737e-3
vn -0.12438289 0.17325730 -0.97699069
vn 0.0000000e+0 0.0000000e+0 1.00000000
vn 0.0000000e+0 0.89442719 0.44721360
vn -0.98172146 7.5913533e-2 0.17452826
vn -0.98172146 7.5913533e-2 0.17452826
vn 0.0000000e+0 0.0000000e+0 1.00000000
vn 0.0000000e+0 0.89442719 0.44721360
vn 0.98330165 5.0592733e-2 0.17480918
vn 0.98330165 5.0592733e-2 0.17480918
vn 0.98330165 5.0592733e-2 0.17480918
vn 0.0000000e+0 0.89442719 0.44721360
vn 0.0000000e+0 0.0000000e+0 1.00000000
vn 0.99891982 4.6198332e-2 -4.9908283e-3
vn 0.12184075 0.28028857 -0.95215185
vn 0.99891982 4.6198332e-2 -4.9908283e-3
vn 0.99891982 4.6198332e-2 -4.9908283e-3
vn 0.12184075 0.28028857 -0.95215185
vn 0.12184075 0.28028857 -0.95215185
vn 0.0000000e+0 1.00000000 -1.3234890e-16
vn -0.98058068 0.19611614 -3.8573135e-17
vn 0.0000000e+0 0.44721360 -0.89442719
vn 0.0000000e+0 0.44721360 -0.89442719
vn 0.0000000e+0 0.44721360 -0.89442719
vn -0.98058068 0.19611614 -3.8573135e-17
vn 0.0000000e+0 0.97324899 0.22975292
vn 0.0000000e+0 0.97324899 0.22975292
vn -0.98082756 0.17445152 8.6855979e-2
vn 0.0000000e+0 0.97324899 0.22975292
vn 0.0000000e+0 0.97324899 0.22975292
vn -0.98082756 0.17445152 8.6855979e-2
vn 0.98082756 0.17445152 8.6855979e-2
vn 0.98082756 0.17445152 8.6855979e-2
vn 0.0000000e+0 0.97324899 0.22975292
vn 0.0000000e+0 0.97324899 0.22975292
vn 0.0000000e+0 1.00000000 -6.6174449e-17
vn 0.0000000e+0 0.44721360 -0.89442719
vn 0.98058068 0.19611614 -3.8573135e-17
vn 0.0000000e+0 1.00000000 -6.6174449e-17
vn 0.0000000e+0 0.44721360 -0.89442719
vn 0.98058068 0.19611614 -3.8573135e-17
vn 0.99613315 9.5938648e-17 8.7856395e-2
vn 0.99613315 9.5938648e-17 8.7856395e-2
vn 0.0000000e+0 -1.00000000 6.2743181e-17
vn 0.0000000e+0 -1.00000000 6.2743181e-17
vn 0.0000000e+0 -1.00000000 6.2743181e-17
vn 0.99613315 9.5938648e-17 8.7856395e-2
vn 0.99613315 9.5938648e-17 8.7856395e-2
vn 0.0000000e+0 -1.00000000 5.7514583e-17
vn -0.99613315 1.9187730e-16 8.7856395e-2
vn 0.0000000e+0 -1.00000000 5.7514583e-17
vn 0.0000000e+0 -1.00000000 5.7514583e-17
vn -0.99613315 1.9187730e-16 8.7856395e-2
vn -0.98588072 0.16728225 -7.4734723e-3
vn -8.1719999e-2 0.42744794 -0.90033888
vn -8.1719999e-2 0.42744794 -0.90033888
vn -0.98588072 0.16728225 -7.4734723e-3
vn -8.1719999e-2 0.42744794 -0.90033888
vn 0.0000000e+0 0.38397455 -0.92334368
vn 0.0000000e+0 0.38397455 -0.92334368
vn 0.98588072 0.16728225 -7.4734723e-3
vn 0.98588072 0.16728225 -7.4734723e-3
vn -5.0010687e-2 0.16956485 -0.98424930
vn -5.0010687e-2 0.16956485 -0.98424930
vn -0.99146336 0.13038560 -7.8946040e-18
vn 0.0000000e+0 -1.00000000 5.9616621e-17
vn 0.0000000e+0 -1.00000000 5.9616621e-17
vn -0.99146336 0.13038560 -7.8946040e-18
vn -5.0010687e-2 0.16956485 -0.98424930
vn -5.0010687e-2 0.16956485 -0.98424930
vn -5.0010687e-2 0.16956485 -0.98424930
vn 0.0000000e+0 -1.00000000 5.9616621e-17
vn 0.12276238 0.17100004 -0.97759316
vn 0.99146336 0.13038560 -7.6921783e-18
vn 0.12276238 0.17100004 -0.97759316
vn 0.12276238 0.17100004 -0.97759316
vn 0.0000000e+0 0.46007470 -0.88788021
vn 0.0000000e+0 1.00000000 -4.4160460e-17
vn 0.0000000e+0 0.46007470 -0.88788021
vn 0.0000000e+0 0.46007470 -0.88788021
vn -0.99146336 0.13038560 -7.8946040e-18
vn 7.1187223e-2 0.43557323 -0.89733402
vn 7.1187223e-2 0.43557323 -0.89733402
vn 0.0000000e+0 1.00000000 -5.5200575e-17
vn 0.99146336 0.13038560 -7.7933912e-18
vn 7.1187223e-2 0.43557323 -0.89733402
vn 7.1187223e-2 0.43557323 -0.89733402
vn 7.1187223e-2 0.43557323 -0.89733402
vn 0.99146336 0.13038560 -7.7933912e-18
vn 0.0000000e+0 1.00000000 -5.5200575e-17
vn 0.0000000e+0 0.48550942 -0.87423143
vn -0.99146336 0.13038560 -7.8946040e-18
vn 0.0000000e+0 -1.00000000 5.9616621e-17
vn 0.0000000e+0 0.48550942 -0.87423143
vn -0.99146336 0.13038560 -7.8946040e-18
vn 0.0000000e+0 1.00000000 -5.5200575e-17
vn -0.99146336 0.13038560 -7.8946040e-18
vn 0.0000000e+0 0.48550942 -0.87423143
vn 0.0000000e+0 1.00000000 -5.5200575e-17
vn 0.99146336 0.13038560 -7.8946040e-18
vn 0.0000000e+0 0.48550942 -0.87423143
vn 0.0000000e+0 1.00000000 -6.6240690e-17
vn 0.0000000e+0 0.48550942 -0.87423143
vn 0.99146336 0.13038560 -7.7933912e-18
vn 0.0000000e+0 -1.00000000 5.9616621e-17
vn 0.99146336 0.13038560 -7.7933912e-18
vn 0.0000000e+0 -1.00000000 5.9616621e-17
vn 0.0000000e+0 0.48550942 -0.87423143
g cube1_default
usemtl default
f 1//6 13//70 15//76
f 1//4 16//2 5//24
f 1//8 19//94 4//20
f 2//10 7//31 6//27
f 2//9 15//73 3//14
f 2//11 16//2 15//74
f 3//17 7//37 2//12
f 3//16 15//75 13//68
f 4//19 13//69 1//5
f 4//22 20//100 8//43
f 5//26 17//82 19//93
f 5//23 19//87 1//3
f 6//30 16//2 2//13
f 7//32 10//51 6//28
f 7//35 13//72 14//1
f 8//38 13//66 4//18
f 8//39 22//107 18//84
f 9//49 16//2 10//55
f 9//48 21//104 17//80
f 10//53 7//36 11//58
f 10//50 12//60 9//44
f 10//52 16//2 6//29
f 11//59 12//63 10//54
f 11//57 14//1 12//62
f 12//65 14//1 18//86
f 12//64 22//111 9//47
f 13//67 7//34 3//15
f 14//1 11//56 7//33
f 14//1 13//71 8//40
f 15//77 16//2 1//7
f 16//2 17//81 5//25
f 17//78 16//2 9//45
f 18//85 14//1 8//41
f 18//83 22//106 12//61
f 19//90 26//129 20//96
f 20//99 4//21 19//95
f 20//97 22//112 8//42
f 20//98 26//130 22//113
f 21//103 9//46 22//110
f 21//101 19//88 17//79
f 21//105 24//121 19//92
f 22//108 24//120 21//102
f 23//116 19//89 24//119
f 23//117 26//131 19//91
f 24//123 22//114 25//126
f 24//118 26//127 23//115
f 25//124 22//109 26//128
f 25//125 26//132 24//122
