# Test export
o left_shoulder
# verticies
v -0.041857 0.01 -0.019536
v 0.068143 0.01 -0.005212
v -0.041857 0.07 -0.019536
v 0.068143 0.07 -0.005212
v -0.041857 0.07 -0.092387
v 0.030164 0.07 -0.106711
v -0.041857 0.01 -0.092387
v 0.030164 0.01 -0.106711
# normals
vn -0.129125 -0.0 0.991628
vn -0.129125 0.0 0.991628
vn -0.129125 0.0 0.991628
vn -0.129125 0.0 0.991628
vn 0.0 1.0 0.0
vn 0.0 1.0 0.0
vn 0.0 1.0 0.0
vn 0.0 1.0 -0.0
vn -0.195063 0.0 -0.980791
vn -0.195063 0.0 -0.980791
vn -0.195063 0.0 -0.980791
vn -0.195063 -0.0 -0.980791
vn -0.0 -1.0 -0.0
vn -0.0 -1.0 -0.0
vn -0.0 -1.0 -0.0
vn 0.0 -1.0 -0.0
vn 0.936579 -0.0 -0.350456
vn 0.936579 -0.0 -0.350456
vn 0.936579 -0.0 -0.350456
vn 0.936579 0.0 -0.350456
vn -1.0 0.0 0.0
vn -1.0 -0.0 0.0
vn -1.0 -0.0 0.0
vn -1.0 -0.0 0.0
f 1//1 2//2 3//3
f 2//2 4//4 3//3
f 4//5 6//6 3//7
f 3//7 6//6 5//8
f 5//9 6//10 7//11
f 6//10 8//12 7//11
f 2//13 1//14 8//15
f 7//16 8//15 1//14
f 2//17 8//18 4//19
f 8//18 6//20 4//19
f 7//21 1//22 5//23
f 1//22 3//24 5//23
