# Test export
o left_collar
# verticies
v -0.032577 0.05 -0.04073
v -0.002577 0.05 -0.04073
v -0.032577 0.17 0.00927
v -0.002577 0.17 0.00927
v -0.032577 0.17 -0.023816
v -0.002577 0.17 -0.023816
v -0.032577 0.05 -0.073816
v -0.002577 0.05 -0.073816
# normals
vn -0.0 -0.384615 0.923077
vn -0.0 -0.384615 0.923077
vn -0.0 -0.384615 0.923077
vn -0.0 -0.384615 0.923077
vn 0.0 1.0 0.0
vn 0.0 1.0 0.0
vn 0.0 1.0 0.0
vn 0.0 1.0 -0.0
vn 0.0 0.384615 -0.923077
vn 0.0 0.384615 -0.923077
vn 0.0 0.384615 -0.923077
vn 0.0 0.384615 -0.923077
vn 0.0 -1.0 -0.0
vn 0.0 -1.0 0.0
vn 0.0 -1.0 0.0
vn 0.0 -1.0 0.0
vn 1.0 -0.0 0.0
vn 1.0 0.0 0.0
vn 1.0 0.0 0.0
vn 1.0 0.0 0.0
vn -1.0 0.0 0.0
vn -1.0 0.0 0.0
vn -1.0 0.0 0.0
vn -1.0 -0.0 0.0
f 1//1 2//2 3//3
f 2//2 4//4 3//3
f 3//5 4//6 5//7
f 4//6 6//8 5//7
f 5//9 6//10 7//11
f 6//10 8//12 7//11
f 7//13 8//14 1//15
f 8//14 2//16 1//15
f 8//17 6//18 2//19
f 2//19 6//18 4//20
f 7//21 1//22 5//23
f 1//22 3//24 5//23
