# Exported from Wings 3D 0.98.32a
mtllib left_lower_leg.mtl
o cube2
#14 vertices, 24 faces
v 5.0000000e-2 -5.0000000e-2 -0.33000000
v 7.5000000e-2 -7.5000000e-2 -0.13000000
v 7.5000000e-2 7.5000000e-2 -0.13000000
v 5.0000000e-2 5.0000000e-2 -0.33000000
v -5.0000000e-2 -5.0000000e-2 -0.33000000
v -7.5000000e-2 -7.5000000e-2 -0.13000000
v -7.5000000e-2 7.5000000e-2 -0.13000000
v -5.0000000e-2 5.0000000e-2 -0.33000000
v 0.14000000 -3.6000000e-2 9.7000000e-2
v 0.14000000 3.6000000e-2 9.7000000e-2
v -7.0000000e-2 3.6000000e-2 1.3000000e-2
v -7.0000000e-2 -3.6000000e-2 1.3000000e-2
v 0.11750000 -6.7500000e-2 -1.6500000e-2
v 0.11750000 6.7500000e-2 -1.6500000e-2
vn 0.99227788 0.0000000e+0 -0.12403473
vn 2.2898350e-16 0.0000000e+0 -1.00000000
vn -8.4918835e-17 -0.99227788 -0.12403473
vn 0.99227788 0.0000000e+0 -0.12403473
vn 2.2898350e-16 0.0000000e+0 -1.00000000
vn -8.4918835e-17 -0.99227788 -0.12403473
vn 0.97102303 0.0000000e+0 -0.23898595
vn -1.0640700e-16 -0.99957412 -2.9181670e-2
vn 0.97102303 0.0000000e+0 -0.23898595
vn -1.0640700e-16 -0.99957412 -2.9181670e-2
vn 0.97102303 -1.0675430e-16 -0.23898595
vn -3.7130037e-2 0.99872467 3.4211001e-2
vn 0.97102303 -1.0675430e-16 -0.23898595
vn -3.7130037e-2 0.99872467 3.4211001e-2
vn 0.97102303 -1.0675430e-16 -0.23898595
vn -3.7130037e-2 0.99872467 3.4211001e-2
vn -3.7130037e-2 0.99872467 3.4211001e-2
vn 0.97102303 -1.0675430e-16 -0.23898595
vn 0.0000000e+0 0.0000000e+0 -1.00000000
vn 0.99227788 0.0000000e+0 -0.12403473
vn 8.6066386e-17 0.99227788 -0.12403473
vn -0.99227788 0.0000000e+0 -0.12403473
vn -5.5082487e-17 -0.99227788 -0.12403473
vn 4.5796700e-16 0.0000000e+0 -1.00000000
vn -0.99900103 -1.1824250e-17 -4.4687213e-2
vn -3.0197971e-2 -0.99932222 2.1051944e-2
vn -0.99900103 -1.1824250e-17 -4.4687213e-2
vn -3.0197971e-2 -0.99932222 2.1051944e-2
vn -0.99900103 -1.1824250e-17 -4.4687213e-2
vn -0.99900103 -1.1824250e-17 -4.4687213e-2
vn -3.0197971e-2 -0.99932222 2.1051944e-2
vn -3.0197971e-2 -0.99932222 2.1051944e-2
vn 9.9099026e-17 0.99748421 7.0889020e-2
vn 9.9099026e-17 0.99748421 7.0889020e-2
vn -0.99900103 0.0000000e+0 -4.4687213e-2
vn -0.99900103 0.0000000e+0 -4.4687213e-2
vn 9.8115680e-17 0.99227788 -0.12403473
vn 2.2898350e-16 0.0000000e+0 -1.00000000
vn -0.99227788 0.0000000e+0 -0.12403473
vn -0.99227788 0.0000000e+0 -0.12403473
vn 9.8115680e-17 0.99227788 -0.12403473
vn 2.2898350e-16 0.0000000e+0 -1.00000000
vn -0.37139068 0.0000000e+0 0.92847669
vn 0.98091167 0.0000000e+0 -0.19445385
vn -0.11468173 -0.95113024 0.28670433
vn -0.37139068 5.3262246e-17 0.92847669
vn 0.98091167 -2.2210612e-16 -0.19445385
vn -0.11468173 0.95113024 0.28670433
vn 0.98091167 -2.2210612e-16 -0.19445385
vn -0.37139068 5.3262246e-17 0.92847669
vn -8.7364535e-2 0.97061453 0.22422060
vn -0.99938928 -2.3573521e-17 3.4943681e-2
vn -8.7364535e-2 0.97061453 0.22422060
vn -8.7364535e-2 0.97061453 0.22422060
vn -0.99938928 -2.3573521e-17 3.4943681e-2
vn -0.37139068 1.0652449e-16 0.92847669
vn -0.37139068 5.3262246e-17 0.92847669
vn -0.11686698 -0.95404673 0.27592924
vn -0.99938928 -4.7147041e-17 3.4943681e-2
vn -0.11686698 -0.95404673 0.27592924
vn -0.37139068 5.3262246e-17 0.92847669
vn 0.96188176 -2.1779721e-16 -0.27346569
vn -7.8431404e-2 -0.97512674 0.20730741
vn 0.96188176 -2.1779721e-16 -0.27346569
vn -7.8431404e-2 -0.97512674 0.20730741
vn -7.8431404e-2 -0.97512674 0.20730741
vn 0.96188176 -2.1779721e-16 -0.27346569
vn 0.96188176 -2.1779721e-16 -0.27346569
vn 0.96188176 -4.3559442e-16 -0.27346569
vn -0.13090870 0.97019480 0.20392392
vn -0.13090870 0.97019480 0.20392392
vn 0.96188176 -4.3559442e-16 -0.27346569
g cube2_default
usemtl default
f 1//1 3//11 2//7
f 1//3 6//26 5//23
f 1//2 8//38 4//19
f 2//10 6//32 1//6
f 2//8 13//63 6//28
f 3//12 8//37 7//33
f 3//16 11//54 14//71
f 3//18 13//68 2//9
f 4//20 3//15 1//4
f 4//21 8//41 3//17
f 5//24 8//42 1//5
f 6//25 8//39 5//22
f 6//27 11//52 7//35
f 6//31 13//66 12//60
f 7//36 8//40 6//30
f 7//34 11//51 3//14
f 9//44 13//64 10//47
f 10//46 12//57 9//43
f 10//49 13//67 14//72
f 10//48 14//70 11//53
f 11//55 6//29 12//59
f 11//56 12//61 10//50
f 12//58 13//65 9//45
f 14//69 13//62 3//13
