# Exported from Wings 3D 0.98.32a
mtllib lower_leg.mtl
o cube2
#28 vertices, 52 faces
v 2.0335540e-2 -3.8600000e-2 -0.33000000
v 3.3295540e-2 -5.1299400e-2 -0.13000000
v 3.3295540e-2 5.1299400e-2 -0.13000000
v 2.0335540e-2 3.8600000e-2 -0.33000000
v -3.1504460e-2 -3.8600000e-2 -0.33000000
v -4.4464460e-2 -4.4235600e-2 -0.13000000
v -4.4464460e-2 4.4235600e-2 -0.13000000
v -3.1504460e-2 3.8600000e-2 -0.33000000
v 6.6991540e-2 -2.7792000e-2 9.7000000e-2
v 6.6991540e-2 2.7792000e-2 9.7000000e-2
v -4.1872460e-2 2.7792000e-2 1.3000000e-2
v -4.1872460e-2 -2.7792000e-2 1.3000000e-2
v 5.5327540e-2 -5.2110000e-2 -1.6500000e-2
v 5.5327540e-2 5.2110000e-2 -1.6500000e-2
v 3.0864991e-2 -2.2981562e-17 -0.33000000
v 5.8302985e-2 -7.9599413e-18 -0.13000000
v 7.7520991e-2 3.1637833e-18 9.7000000e-2
v 7.3086145e-2 -1.0103002e-18 -1.6500000e-2
v -3.5438278e-2 1.9460308e-2 1.7327405e-2
v -3.5438278e-2 -1.9460308e-2 1.7327405e-2
v 6.2735683e-2 -1.9447831e-2 9.3395212e-2
v 7.0960022e-2 3.0912972e-18 9.2006383e-2
v 6.2735683e-2 1.9447831e-2 9.3395212e-2
v -3.5438278e-2 1.9460308e-2 -3.2672595e-2
v -3.5438278e-2 -1.9460308e-2 -3.2672595e-2
v 6.2735683e-2 -1.9447831e-2 4.3395212e-2
v 7.0960022e-2 2.9781317e-20 4.2006383e-2
v 6.2735683e-2 1.9447831e-2 4.3395212e-2
vn 0.98868337 -4.0606946e-2 -0.14441700
vn 0.99644851 -1.4669584e-17 -8.4204358e-2
vn -6.4570259e-2 -0.78498443 0.61614132
vn -8.7444687e-2 0.53990860 0.83716912
vn -0.63684922 0.47104072 0.61036359
vn -0.90476084 -2.4160381e-2 0.42523416
vn -0.63769799 -0.43350196 0.63672390
vn 0.73637928 -0.53076709 0.41956150
vn -0.11946838 0.53073645 0.83907456
vn -0.57002532 0.69226294 0.44254170
vn -0.86183877 2.8552884e-17 0.50718234
vn -0.60847775 -0.58293259 0.53846487
vn 0.93026015 -0.35034119 -0.10898216
vn -4.5211084e-2 -0.99806139 -4.2771765e-2
vn 0.93026015 -0.35034119 -0.10898216
vn 0.0000000e+0 0.0000000e+0 -1.00000000
vn -4.5211084e-2 -0.99806139 -4.2771765e-2
vn 0.89120253 -0.43444365 -0.13044830
vn 0.89120253 -0.43444365 -0.13044830
vn -9.0443705e-2 -0.99562593 -2.3429412e-2
vn -9.0443705e-2 -0.99562593 -2.3429412e-2
vn -6.0376131e-2 0.99775487 -2.8981912e-2
vn 0.91720323 0.37797176 -0.12599833
vn -6.0376131e-2 0.99775487 -2.8981912e-2
vn 0.91720323 0.37797176 -0.12599833
vn -6.0376131e-2 0.99775487 -2.8981912e-2
vn 0.91720323 0.37797176 -0.12599833
vn -5.5482744e-16 0.0000000e+0 -1.00000000
vn 0.96173642 0.26234601 -7.8978705e-2
vn 8.3489435e-17 0.99799014 -6.3369380e-2
vn -0.99790707 0.0000000e+0 -6.4664378e-2
vn -1.0703921e-16 -0.99960324 -2.8166820e-2
vn 0.0000000e+0 0.0000000e+0 -1.00000000
vn 0.0000000e+0 0.0000000e+0 -1.00000000
vn -0.99972873 -9.1447988e-18 -2.3290713e-2
vn -9.7668913e-2 -0.99516705 1.0165339e-2
vn -0.99972873 -9.1447988e-18 -2.3290713e-2
vn -9.7668913e-2 -0.99516705 1.0165339e-2
vn -9.7668913e-2 -0.99516705 1.0165339e-2
vn -0.99972873 -9.1447988e-18 -2.3290713e-2
vn -0.99972873 -9.1447988e-18 -2.3290713e-2
vn -9.7668913e-2 -0.99516705 1.0165339e-2
vn -0.13007842 0.99102592 3.0777188e-2
vn -0.13007842 0.99102592 3.0777188e-2
vn -0.99972873 0.0000000e+0 -2.3290713e-2
vn -0.99972873 0.0000000e+0 -2.3290713e-2
vn -0.13007842 0.99102592 3.0777188e-2
vn -4.5259493e-2 0.99778786 -4.8692460e-2
vn -2.7741372e-16 0.0000000e+0 -1.00000000
vn -0.99790707 0.0000000e+0 -6.4664378e-2
vn -0.99790707 0.0000000e+0 -6.4664378e-2
vn -4.5259493e-2 0.99778786 -4.8692460e-2
vn -2.7741372e-16 0.0000000e+0 -1.00000000
vn 0.93494460 -0.35421895 -2.0187642e-2
vn -0.17227125 -0.95941441 0.22326354
vn -0.55457771 8.4840652e-2 0.82779565
vn -0.55457771 8.4840652e-2 0.82779565
vn -0.55457771 8.4840652e-2 0.82779565
vn -0.17227125 0.95941441 0.22326354
vn 0.93494460 0.35421895 -2.0187642e-2
vn -0.52438018 -0.15804261 0.83668869
vn -0.52438018 -0.15804261 0.83668869
vn -0.52438018 -0.15804261 0.83668869
vn -0.79786670 -1.7059786e-2 0.60259248
vn -0.19042760 0.96693342 0.16963810
vn -0.79786670 -1.7059786e-2 0.60259248
vn -0.79786670 -1.7059786e-2 0.60259248
vn -0.79786670 -1.7059786e-2 0.60259248
vn -0.79786670 -1.7059786e-2 0.60259248
vn -0.79786670 -1.7059786e-2 0.60259248
vn -0.19042760 0.96693342 0.16963810
vn -0.19042760 -0.96693342 0.16963810
vn -0.19042760 -0.96693342 0.16963810
vn -0.79760599 2.2240037e-2 0.60276867
vn -0.79760599 2.2240037e-2 0.60276867
vn -0.79760599 2.2240037e-2 0.60276867
vn -0.15770543 -0.98053185 0.11698838
vn 0.92939524 -0.35822213 -8.8889801e-2
vn -0.15770543 -0.98053185 0.11698838
vn 0.92939524 -0.35822213 -8.8889801e-2
vn 0.92939524 -0.35822213 -8.8889801e-2
vn -0.15770543 -0.98053185 0.11698838
vn 0.92939524 -0.35822213 -8.8889801e-2
vn 0.92939524 0.35822213 -8.8889801e-2
vn -0.15770543 0.98053185 0.11698838
vn -0.15770543 0.98053185 0.11698838
vn 0.92939524 0.35822213 -8.8889801e-2
vn 0.92939524 0.35822213 -8.8889801e-2
vn 0.92939524 0.35822213 -8.8889801e-2
vn -0.15770543 0.98053185 0.11698838
vn -1.8494248e-16 0.0000000e+0 -1.00000000
vn 0.98147117 0.15239160 -0.11615137
vn 0.98147117 0.15239160 -0.11615137
vn 0.98147117 0.15239160 -0.11615137
vn -1.8494248e-16 0.0000000e+0 -1.00000000
vn -1.8494248e-16 0.0000000e+0 -1.00000000
vn 0.99953873 -8.8501114e-17 -3.0369819e-2
vn 0.99953873 -8.8501114e-17 -3.0369819e-2
vn -0.54918854 8.1852967e-2 0.83168025
vn -0.54918854 8.1852967e-2 0.83168025
vn 0.99953873 -8.8501114e-17 -3.0369819e-2
vn 0.99953873 -8.8501114e-17 -3.0369819e-2
vn -0.54918854 8.1852967e-2 0.83168025
g cube2_default
usemtl default
f 1//16 5//33 15//95
f 1//14 6//36 5//32
f 1//13 16//1 2//18
f 2//21 6//42 1//17
f 2//20 13//82 6//39
f 3//22 8//48 7//43
f 3//25 15//92 4//29
f 4//30 8//52 3//26
f 4//28 15//91 8//49
f 6//35 8//50 5//31
f 6//37 11//64 7//45
f 6//38 13//77 12//72
f 7//46 8//51 6//40
f 7//44 14//85 3//24
f 8//53 15//96 5//34
f 9//56 20//4 12//74
f 10//59 14//86 11//65
f 10//61 22//6 17//100
f 11//68 6//41 12//75
f 11//71 14//90 7//47
f 11//67 23//7 10//62
f 12//73 13//79 9//55
f 12//76 20//4 11//69
f 13//83 16//1 18//2
f 13//78 17//97 9//54
f 14//84 16//1 3//23
f 14//89 17//101 18//2
f 15//93 16//1 1//15
f 16//1 13//80 2//19
f 16//1 15//94 3//27
f 17//98 14//87 10//60
f 17//99 21//5 9//57
f 18//2 16//1 14//88
f 18//2 17//102 13//81
f 19//3 11//66 20//4
f 19//3 23//7 11//70
f 19//3 28//12 23//7
f 20//4 9//58 21//5
f 20//4 24//8 19//3
f 21//5 17//103 22//6
f 21//5 26//10 20//4
f 22//6 10//63 23//7
f 22//6 26//10 21//5
f 23//7 28//12 22//6
f 24//8 20//4 25//9
f 24//8 28//12 19//3
f 25//9 20//4 26//10
f 25//9 28//12 24//8
f 26//10 22//6 27//11
f 26//10 28//12 25//9
f 27//11 22//6 28//12
f 27//11 28//12 26//10
