# Test export
o right_lower_arm
# verticies
v -0.387633 -0.02 -0.039162
v -0.187633 -0.01 -0.039162
v -0.387633 -0.06 -0.039162
v -0.187633 -0.07 -0.039162
v -0.387633 -0.06 -0.072761
v -0.137633 -0.07 -0.1106
v -0.387633 -0.02 -0.072761
v -0.137633 -0.01 -0.1106
v -0.437411 -0.043964 0.00191
v -0.382733 -0.03 -0.038884
v -0.437411 -0.076158 0.00191
v -0.382733 -0.051871 -0.038884
v -0.437411 -0.076158 -0.062384
v -0.382733 -0.051871 -0.073039
v -0.437411 -0.043964 -0.062384
v -0.382733 -0.03 -0.073039
# normals
vn 0.0 0.0 1.0
vn -0.0 0.0 1.0
vn -0.0 0.0 1.0
vn -0.0 0.0 1.0
vn -0.044673 -0.998512 -0.031267
vn -0.047311 -0.998758 -0.015635
vn -0.047311 -0.998758 -0.015635
vn -0.049938 -0.998752 0.0
vn -0.149652 -0.0 -0.988739
vn -0.149652 0.0 -0.988739
vn -0.149652 0.0 -0.988739
vn -0.149652 0.0 -0.988739
vn -0.044673 0.998512 -0.031267
vn -0.047311 0.998758 -0.015635
vn -0.047311 0.998758 -0.015635
vn -0.049938 0.998752 -0.0
vn 0.819267 -0.0 0.573413
vn 0.819267 0.0 0.573413
vn 0.819267 0.0 0.573413
vn 0.819267 0.0 0.573412
vn -1.0 0.0 0.0
vn -1.0 0.0 0.0
vn -1.0 0.0 0.0
vn -1.0 -0.0 0.0
vn 0.597982 -0.0 0.80151
vn 0.597982 0.0 0.80151
vn 0.597982 0.0 0.80151
vn 0.597982 0.0 0.80151
vn 0.405935 -0.913902 -0.0
vn 0.405935 -0.913902 0.0
vn 0.405935 -0.913902 0.0
vn 0.405935 -0.913902 0.0
vn -0.191271 0.0 -0.981537
vn -0.191271 -0.0 -0.981537
vn -0.191271 -0.0 -0.981537
vn -0.191271 -0.0 -0.981537
vn -0.247437 0.968904 -0.0
vn -0.247437 0.968904 -0.0
vn -0.247437 0.968904 -0.0
vn -0.247437 0.968904 -0.0
vn 1.0 -0.0 0.0
vn 1.0 0.0 0.0
vn 1.0 0.0 0.0
vn 1.0 0.0 0.0
vn -1.0 0.0 0.0
vn -1.0 0.0 0.0
vn -1.0 0.0 0.0
vn -1.0 -0.0 0.0
f 2//1 1//2 4//3
f 1//2 3//4 4//3
f 6//5 4//6 5//7
f 3//8 5//7 4//6
f 6//9 5//10 8//11
f 5//10 7//12 8//11
f 8//13 7//14 2//15
f 7//14 1//16 2//15
f 2//17 4//18 8//19
f 8//19 4//18 6//20
f 7//21 5//22 1//23
f 1//23 5//22 3//24
f 9//25 11//26 10//27
f 10//27 11//26 12//28
f 11//29 13//30 12//31
f 12//31 13//30 14//32
f 13//33 15//34 14//35
f 14//35 15//34 16//36
f 9//37 10//38 15//39
f 15//39 10//38 16//40
f 10//41 12//42 16//43
f 16//43 12//42 14//44
f 15//45 13//46 9//47
f 9//47 13//46 11//48
