# Exported from Wings 3D 0.98.32a
mtllib right_foot.mtl
o cube2
#15 vertices, 26 faces
v -8.3325121e-2 -3.2362500e-2 -3.5000000e-2
v -4.5325121e-2 -2.5000000e-2 1.5000000e-2
v 4.2859905e-2 -2.5000000e-2 1.5000000e-2
v 0.10873989 -3.7500000e-2 -3.5000000e-2
v -8.3325121e-2 2.7637500e-2 -3.5000000e-2
v -4.5325121e-2 2.5000000e-2 1.5000000e-2
v 4.2859905e-2 2.5000000e-2 1.5000000e-2
v 0.10873989 3.7500000e-2 -3.5000000e-2
v 8.3201692e-2 9.1845477e-19 1.5000000e-2
v 0.14467488 -2.1430611e-18 -3.5000000e-2
v -6.4325121e-2 -3.1250000e-2 -1.0000000e-2
v 9.5000265e-2 -3.0712500e-2 -1.0000000e-2
v -6.4325121e-2 3.1250000e-2 -1.0000000e-2
v 9.5000265e-2 3.5437500e-2 -1.0000000e-2
v 0.11604244 -6.1230318e-19 -1.0000000e-2
vn -0.84261316 -0.51917524 0.14303890
vn -0.35645593 -0.43435000 0.82721173
vn 0.14346225 -0.50394505 0.85173821
vn 0.34743163 -0.83573306 -0.42525465
vn -0.42608499 0.49953015 -0.75426866
vn -0.40579047 0.24723265 0.87989210
vn 0.15822621 0.56670486 0.80858523
vn 0.36997248 0.88577630 -0.28021548
vn 0.37554101 0.0000000e+0 0.92680578
vn 0.97089387 0.0000000e+0 0.23951010
vn -0.45603670 -0.73947492 0.49518417
vn 0.31830456 -0.77547947 0.54526489
vn -0.47933384 0.75073470 0.45457286
vn 0.32835903 0.78377458 0.52714112
vn 0.63320410 -1.0535037e-2 0.77391316
g cube2_default
usemtl default
f 1//1 4//4 11//11
f 1//1 5//5 4//4
f 1//1 13//13 5//5
f 2//2 11//11 3//3
f 3//3 6//6 2//2
f 3//3 11//11 12//12
f 3//3 15//15 9//9
f 4//4 8//8 10//10
f 4//4 15//15 12//12
f 6//6 3//3 7//7
f 6//6 11//11 2//2
f 7//7 13//13 6//6
f 7//7 15//15 14//14
f 8//8 4//4 5//5
f 8//8 13//13 14//14
f 8//8 15//15 10//10
f 9//9 7//7 3//3
f 9//9 15//15 7//7
f 10//10 15//15 4//4
f 11//11 13//13 1//1
f 12//12 11//11 4//4
f 12//12 15//15 3//3
f 13//13 8//8 5//5
f 13//13 11//11 6//6
f 14//14 13//13 7//7
f 14//14 15//15 8//8
