# Exported from Wings 3D 0.98.32a
mtllib right_lower_leg.mtl
o cube2
#28 vertices, 52 faces
v 2.0157143e-2 -3.8600000e-2 -0.33000000
v 3.4557143e-2 -5.7900000e-2 -0.13000000
v 3.4557143e-2 5.7900000e-2 -0.13000000
v 2.0157143e-2 3.8600000e-2 -0.33000000
v -3.7442857e-2 -3.8600000e-2 -0.33000000
v -5.1842857e-2 -4.4235600e-2 -0.13000000
v -5.1842857e-2 4.4235600e-2 -0.13000000
v -3.7442857e-2 3.8600000e-2 -0.33000000
v 7.1997143e-2 -2.7792000e-2 9.7000000e-2
v 7.1997143e-2 2.7792000e-2 9.7000000e-2
v -4.8962857e-2 2.7792000e-2 1.3000000e-2
v -4.8962857e-2 -2.7792000e-2 1.3000000e-2
v 5.9037143e-2 -5.2110000e-2 -1.6500000e-2
v 5.9037143e-2 5.2110000e-2 -1.6500000e-2
v 3.1856532e-2 -2.2981562e-17 -0.33000000
v 6.2343193e-2 -7.9599413e-18 -0.13000000
v 8.3696532e-2 3.1637833e-18 9.7000000e-2
v 8.6823193e-2 -1.0103002e-18 -1.6500000e-2
v -4.1813765e-2 1.9460308e-2 1.7327405e-2
v -4.1813765e-2 -1.9460308e-2 1.7327405e-2
v 6.7268413e-2 -1.9447831e-2 9.3395212e-2
v 7.6406567e-2 3.0912972e-18 9.2006383e-2
v 6.7268413e-2 1.9447831e-2 9.3395212e-2
v -4.1813765e-2 1.9460308e-2 -3.2672595e-2
v -4.1813765e-2 -1.9460308e-2 -3.2672595e-2
v 6.7268413e-2 -1.9447831e-2 4.3395212e-2
v 7.6406567e-2 2.9781317e-20 4.2006383e-2
v 6.7268413e-2 1.9447831e-2 4.3395212e-2
vn 0.98382546 -4.5451435e-2 -0.17326751
vn 0.99570300 -2.6862513e-16 -9.2604151e-2
vn -4.4692265e-2 -0.53611099 0.84296359
vn -4.4735324e-2 0.52924291 0.84729021
vn -0.69377872 0.49305815 0.52494261
vn -0.87844382 6.7604648e-17 0.47784563
vn -0.63117157 -0.55605416 0.54076447
vn 0.55112983 -0.77201380 0.31662375
vn -7.4799220e-2 0.51903175 0.85147585
vn -0.40166995 0.73408560 0.54752131
vn -0.96172743 0.0000000e+0 0.27400794
vn -0.53603038 -0.40232784 0.74216153
vn 0.92456749 -0.35972417 -0.12559249
vn -7.8100577e-2 -0.99536222 -5.6163525e-2
vn 0.92456749 -0.35972417 -0.12559249
vn 0.0000000e+0 0.0000000e+0 -1.00000000
vn -7.8100577e-2 -0.99536222 -5.6163525e-2
vn 0.89292829 -0.42851382 -0.13803973
vn 0.89292829 -0.42851382 -0.13803973
vn -0.15621124 -0.98772367 5.4202749e-6
vn -0.15621124 -0.98772367 5.4202749e-6
vn -0.10449714 0.99437641 -1.7201950e-2
vn 0.91415039 0.38239006 -0.13456187
vn -0.10449714 0.99437641 -1.7201950e-2
vn 0.91415039 0.38239006 -0.13456187
vn -0.10449714 0.99437641 -1.7201950e-2
vn 0.91415039 0.38239006 -0.13456187
vn -4.9934470e-16 0.0000000e+0 -1.00000000
vn 0.95254659 0.28871020 -9.6443888e-2
vn 1.4988736e-16 0.99537614 -9.6053798e-2
vn -0.99741803 0.0000000e+0 -7.1814098e-2
vn -9.6335289e-17 -0.99960324 -2.8166820e-2
vn 0.0000000e+0 0.0000000e+0 -1.00000000
vn 0.0000000e+0 0.0000000e+0 -1.00000000
vn -0.99966541 -1.0695052e-17 -2.5866531e-2
vn -0.12557369 -0.99183859 2.2078352e-2
vn -0.99966541 -1.0695052e-17 -2.5866531e-2
vn -0.12557369 -0.99183859 2.2078352e-2
vn -0.12557369 -0.99183859 2.2078352e-2
vn -0.99966541 -1.0695052e-17 -2.5866531e-2
vn -0.99966541 -1.0695052e-17 -2.5866531e-2
vn -0.12557369 -0.99183859 2.2078352e-2
vn -0.16695875 0.98450132 5.3683528e-2
vn -0.16695875 0.98450132 5.3683528e-2
vn -0.99966541 0.0000000e+0 -2.5866531e-2
vn -0.99966541 0.0000000e+0 -2.5866531e-2
vn -0.16695875 0.98450132 5.3683528e-2
vn -7.8317545e-2 0.99462120 -6.7786630e-2
vn -2.4967235e-16 0.0000000e+0 -1.00000000
vn -0.99741803 0.0000000e+0 -7.1814098e-2
vn -0.99741803 0.0000000e+0 -7.1814098e-2
vn -7.8317545e-2 0.99462120 -6.7786630e-2
vn -2.4967235e-16 0.0000000e+0 -1.00000000
vn 0.92143985 -0.38789161 -2.2106715e-2
vn -0.15548310 -0.96213083 0.22389567
vn -0.51509602 8.6923472e-2 0.85271355
vn -0.51509602 8.6923472e-2 0.85271355
vn -0.51509602 8.6923472e-2 0.85271355
vn -0.15548310 0.96213083 0.22389567
vn 0.92143985 0.38789161 -2.2106715e-2
vn -0.48602454 -9.9657425e-2 0.86824452
vn -0.48602454 -9.9657425e-2 0.86824452
vn -0.77620905 -1.7884942e-2 0.63022190
vn -0.17198888 0.97028606 0.17019043
vn -0.77620905 -1.7884942e-2 0.63022190
vn -0.77620905 -1.7884942e-2 0.63022190
vn -0.77620905 -1.7884942e-2 0.63022190
vn -0.77620905 -1.7884942e-2 0.63022190
vn -0.77620905 -1.7884942e-2 0.63022190
vn -0.17198888 0.97028606 0.17019043
vn -0.17198888 -0.97028606 0.17019043
vn -0.17198888 -0.97028606 0.17019043
vn -0.77594585 2.3312239e-2 0.63036860
vn -0.77594585 2.3312239e-2 0.63036860
vn -0.77594585 2.3312239e-2 0.63036860
vn -0.16668770 -0.97580638 0.14148186
vn 0.89412082 -0.43887272 -8.9099354e-2
vn -0.16668770 -0.97580638 0.14148186
vn 0.89412082 -0.43887272 -8.9099354e-2
vn 0.89412082 -0.43887272 -8.9099354e-2
vn -0.16668770 -0.97580638 0.14148186
vn 0.89412082 -0.43887272 -8.9099354e-2
vn 0.89412082 0.43887272 -8.9099354e-2
vn -0.16668770 0.97580638 0.14148186
vn -0.16668770 0.97580638 0.14148186
vn 0.89412082 0.43887272 -8.9099354e-2
vn 0.89412082 0.43887272 -8.9099354e-2
vn 0.89412082 0.43887272 -8.9099354e-2
vn -0.16668770 0.97580638 0.14148186
vn -1.6644823e-16 0.0000000e+0 -1.00000000
vn 0.97965775 0.15095073 -0.13222923
vn 0.97965775 0.15095073 -0.13222923
vn 0.97965775 0.15095073 -0.13222923
vn -1.6644823e-16 0.0000000e+0 -1.00000000
vn -1.6644823e-16 0.0000000e+0 -1.00000000
vn 0.99999926 -6.1556786e-17 1.2164883e-3
vn 0.99999926 -6.1556786e-17 1.2164883e-3
vn -0.48359632 5.7563894e-17 0.87529115
vn -0.48359632 5.7563894e-17 0.87529115
vn 0.99999926 -6.1556786e-17 1.2164883e-3
vn 0.99999926 -6.1556786e-17 1.2164883e-3
vn -0.48359632 5.7563894e-17 0.87529115
vn -0.48359632 5.7563894e-17 0.87529115
g cube2_default
usemtl default
f 1//16 5//34 15//95
f 1//14 6//36 5//32
f 1//13 16//1 2//18
f 2//21 6//42 1//17
f 2//20 13//81 6//39
f 3//22 8//48 7//43
f 3//25 15//91 4//29
f 4//30 8//52 3//26
f 4//28 15//90 8//49
f 6//35 8//50 5//31
f 6//37 11//63 7//45
f 6//38 13//76 12//71
f 7//46 8//51 6//40
f 7//44 14//84 3//24
f 8//53 15//94 5//33
f 9//57 20//4 12//75
f 10//59 14//85 11//64
f 10//61 23//7 17//99
f 11//67 6//41 12//74
f 11//70 14//89 7//47
f 11//69 23//7 10//62
f 12//72 13//78 9//55
f 12//73 20//4 11//65
f 13//82 16//1 18//2
f 13//77 17//96 9//54
f 14//83 16//1 3//23
f 14//88 17//100 18//2
f 15//92 16//1 1//15
f 16//1 13//79 2//19
f 16//1 15//93 3//27
f 17//97 14//86 10//60
f 17//102 21//5 9//58
f 18//2 16//1 14//87
f 18//2 17//101 13//80
f 19//3 11//68 20//4
f 19//3 23//7 11//66
f 19//3 24//8 23//7
f 20//4 9//56 21//5
f 20//4 24//8 19//3
f 21//5 17//98 22//6
f 21//5 26//10 20//4
f 22//6 17//103 23//7
f 22//6 27//11 21//5
f 23//7 27//11 22//6
f 24//8 20//4 25//9
f 25//9 20//4 26//10
f 25//9 28//12 24//8
f 26//10 21//5 27//11
f 26//10 28//12 25//9
f 27//11 23//7 28//12
f 27//11 28//12 26//10
f 28//12 23//7 24//8
