# Test export
o right_hip
# verticies
v 0.070071 -0.07 -0.028158
v 0.290071 -0.07 0.021842
v 0.070071 -0.05 -0.028158
v 0.290071 -0.05 0.021842
v 0.070071 -0.05 -0.071842
v 0.290071 -0.05 -0.021842
v 0.070071 -0.07 -0.071842
v 0.290071 -0.07 -0.021842
# normals
vn -0.221621 0.0 0.975133
vn -0.221621 0.0 0.975133
vn -0.221621 0.0 0.975133
vn -0.221621 -0.0 0.975133
vn 0.0 1.0 0.0
vn 0.0 1.0 0.0
vn 0.0 1.0 0.0
vn 0.0 1.0 -0.0
vn 0.221622 -0.0 -0.975133
vn 0.221621 6.0E-6 -0.975133
vn 0.221621 6.0E-6 -0.975133
vn 0.221621 1.2E-5 -0.975133
vn 0.0 -1.0 0.0
vn 0.0 -1.0 0.0
vn 0.0 -1.0 0.0
vn 0.0 -1.0 -0.0
vn 1.0 1.0E-6 0.0
vn 1.0 -0.0 0.0
vn 1.0 -0.0 0.0
vn 1.0 -1.0E-6 0.0
vn -1.0 1.0E-6 0.0
vn -1.0 0.0 0.0
vn -1.0 0.0 0.0
vn -1.0 -1.0E-6 0.0
f 1//1 2//2 3//3
f 2//2 4//4 3//3
f 4//5 6//6 3//7
f 3//7 6//6 5//8
f 5//9 6//10 7//11
f 6//10 8//12 7//11
f 7//13 8//14 1//15
f 8//14 2//16 1//15
f 2//17 8//18 4//19
f 8//18 6//20 4//19
f 7//21 1//22 5//23
f 1//22 3//24 5//23
