# Exported from Wings 3D 0.98.32a
mtllib right_upper_leg.mtl
o cube2
#40 vertices, 76 faces
v -3.5050713e-2 -3.6000000e-2 -0.25000000
v -4.0000000e-2 -4.0000000e-2 4.0000000e-2
v 4.0000000e-2 -4.0000000e-2 4.0000000e-2
v 3.6949287e-2 -3.6000000e-2 -0.25000000
v -3.5050713e-2 3.6000000e-2 -0.25000000
v -4.0000000e-2 4.0000000e-2 4.0000000e-2
v 4.0000000e-2 4.0000000e-2 4.0000000e-2
v 3.6949287e-2 3.6000000e-2 -0.25000000
v -3.9898573e-2 -4.8000000e-2 -0.15000000
v 5.6101427e-2 -4.8000000e-2 -0.15000000
v 4.7464336e-2 2.4492127e-18 4.0000000e-2
v 4.3667189e-2 -1.5307579e-17 -0.25000000
v -3.9898573e-2 4.8000000e-2 -0.15000000
v 5.6101427e-2 4.8000000e-2 -0.15000000
v 6.5058630e-2 -9.1845477e-18 -0.15000000
v 3.1458003e-2 -2.8800000e-2 -0.35000000
v -2.6141997e-2 -2.8800000e-2 -0.35000000
v -2.6141997e-2 2.8800000e-2 -0.35000000
v 3.1458003e-2 2.8800000e-2 -0.35000000
v 3.6832325e-2 -2.1430611e-17 -0.35000000
v -2.8801865e-2 -2.8801865e-2 5.5472750e-2
v 3.0698225e-2 -2.8801865e-2 5.5472750e-2
v 3.6072895e-2 3.3966141e-18 5.5472750e-2
v 3.0698225e-2 2.8801865e-2 5.5472750e-2
v -2.8801865e-2 2.8801865e-2 5.5472750e-2
v -1.7572931e-2 -2.8801865e-2 0.15645371
v 2.3759306e-2 -2.8801865e-2 0.11365293
v 2.7492865e-2 6.7222755e-18 0.10978672
v 2.3759306e-2 2.8801865e-2 0.11365293
v -1.7572931e-2 2.8801865e-2 0.15645371
v -1.1816380e-2 -2.0514985e-2 0.15049263
v 1.8977604e-2 -2.0514985e-2 0.11860453
v 2.1636943e-2 7.4166988e-18 0.11585070
v 1.8977604e-2 2.0514985e-2 0.11860453
v -1.1816380e-2 2.0514985e-2 0.15049263
v -1.1816380e-2 -2.0514985e-2 7.0492630e-2
v 1.8977604e-2 -2.0514985e-2 3.8604527e-2
v 2.1636943e-2 2.5182734e-18 3.5850701e-2
v 1.8977604e-2 2.0514985e-2 3.8604527e-2
v -1.1816380e-2 2.0514985e-2 7.0492630e-2
vn 0.0000000e+0 -0.99542879 -9.5506654e-2
vn -0.99764474 0.0000000e+0 -6.8592735e-2
vn 0.0000000e+0 -0.99542879 -9.5506654e-2
vn 0.0000000e+0 -0.99542879 -9.5506654e-2
vn -0.99764474 0.0000000e+0 -6.8592735e-2
vn 0.0000000e+0 -0.99542879 -9.5506654e-2
vn -0.99999986 0.0000000e+0 -5.3382389e-4
vn 0.0000000e+0 -0.99911475 4.2067989e-2
vn 0.0000000e+0 -0.81009806 0.58629441
vn -0.81009806 0.0000000e+0 0.58629441
vn 0.0000000e+0 -0.81009806 0.58629441
vn -0.81009806 0.0000000e+0 0.58629441
vn -0.99999986 0.0000000e+0 -5.3382389e-4
vn 0.0000000e+0 -0.99911475 4.2067989e-2
vn 0.97898278 -0.18268641 9.0655319e-2
vn 0.0000000e+0 -0.99911475 4.2067989e-2
vn 0.0000000e+0 -0.81009806 0.58629441
vn 0.79635116 -0.14860582 0.58629441
vn 0.97379607 -0.18171853 -0.13674646
vn 0.97379607 -0.18171853 -0.13674646
vn 0.0000000e+0 -0.99542879 -9.5506654e-2
vn 0.0000000e+0 -0.99542879 -9.5506654e-2
vn 0.0000000e+0 0.99542879 -9.5506654e-2
vn -0.99764474 0.0000000e+0 -6.8592735e-2
vn -0.99764474 0.0000000e+0 -6.8592735e-2
vn 0.0000000e+0 0.99542879 -9.5506654e-2
vn 0.0000000e+0 0.99542879 -9.5506654e-2
vn 0.0000000e+0 0.99542879 -9.5506654e-2
vn -0.99764474 0.0000000e+0 -6.8592735e-2
vn -0.99764474 0.0000000e+0 -6.8592735e-2
vn 0.0000000e+0 0.99911475 4.2067989e-2
vn 0.0000000e+0 0.81009806 0.58629441
vn -0.81009806 0.0000000e+0 0.58629441
vn -0.99999986 0.0000000e+0 -5.3382389e-4
vn 0.0000000e+0 0.81009806 0.58629441
vn 0.0000000e+0 0.99911475 4.2067989e-2
vn 0.79635116 0.14860582 0.58629441
vn 0.97898278 0.18268641 9.0655319e-2
vn 0.0000000e+0 0.81009806 0.58629441
vn 0.0000000e+0 0.99911475 4.2067989e-2
vn 0.0000000e+0 0.99542879 -9.5506654e-2
vn 0.0000000e+0 0.99542879 -9.5506654e-2
vn 0.97379607 0.18171853 -0.13674646
vn 0.97379607 0.18171853 -0.13674646
vn 0.0000000e+0 -0.99925224 -3.8664619e-2
vn -0.99947280 0.0000000e+0 -3.2467377e-2
vn -0.99947280 0.0000000e+0 -3.2467377e-2
vn 0.0000000e+0 -0.99925224 -3.8664619e-2
vn -0.99947280 0.0000000e+0 -3.2467377e-2
vn 0.0000000e+0 -0.99925224 -3.8664619e-2
vn 0.98136375 -0.18313072 -5.8209385e-2
vn 0.0000000e+0 -0.99925224 -3.8664619e-2
vn 0.98136375 -0.18313072 -5.8209385e-2
vn 0.0000000e+0 -0.99925224 -3.8664619e-2
vn 0.98136375 -0.18313072 -5.8209385e-2
vn 0.0000000e+0 -0.99925224 -3.8664619e-2
vn 0.98136375 -0.18313072 -5.8209385e-2
vn 0.97898278 -0.18268641 9.0655319e-2
vn 0.97898278 0.18268641 9.0655319e-2
vn 0.80529272 1.4033610e-17 0.59287742
vn 0.80529272 1.4033610e-17 0.59287742
vn 0.97898278 0.18268641 9.0655319e-2
vn 0.80529272 1.4033610e-17 0.59287742
vn 0.80529272 1.4033610e-17 0.59287742
vn 0.97898278 -0.18268641 9.0655319e-2
vn 0.97379607 0.18171853 -0.13674646
vn 0.97379607 -0.18171853 -0.13674646
vn 0.97379607 0.18171853 -0.13674646
vn 0.97379607 -0.18171853 -0.13674646
vn 0.97379607 -0.18171853 -0.13674646
vn 0.97379607 0.18171853 -0.13674646
vn 0.97379607 0.18171853 -0.13674646
vn 0.97379607 -0.18171853 -0.13674646
vn 0.0000000e+0 0.99993151 -1.1703644e-2
vn -0.99986385 0.0000000e+0 -1.6500669e-2
vn 0.0000000e+0 0.99993151 -1.1703644e-2
vn -0.99986385 0.0000000e+0 -1.6500669e-2
vn 0.0000000e+0 0.99993151 -1.1703644e-2
vn -0.99986385 0.0000000e+0 -1.6500669e-2
vn 0.98136375 0.18313072 -5.8209385e-2
vn 0.98136375 0.18313072 -5.8209385e-2
vn 0.0000000e+0 0.99784617 -6.5597471e-2
vn 0.98136375 0.18313072 -5.8209385e-2
vn 0.0000000e+0 0.99784617 -6.5597471e-2
vn 0.98136375 0.18313072 -5.8209385e-2
vn 0.0000000e+0 0.99784617 -6.5597471e-2
vn 0.98136375 0.18313072 -5.8209385e-2
vn 0.98136375 0.18313072 -5.8209385e-2
vn 0.98136375 -0.18313072 -5.8209385e-2
vn 0.98136375 -0.18313072 -5.8209385e-2
vn 0.0000000e+0 -0.99741803 -7.1814098e-2
vn 0.98081920 -0.18302910 -6.7037662e-2
vn 0.0000000e+0 0.0000000e+0 -1.00000000
vn 0.98081920 -0.18302910 -6.7037662e-2
vn 0.0000000e+0 -0.99741803 -7.1814098e-2
vn 0.0000000e+0 -0.99741803 -7.1814098e-2
vn -0.99605520 0.0000000e+0 -8.8735730e-2
vn 0.0000000e+0 0.0000000e+0 -1.00000000
vn 0.0000000e+0 0.0000000e+0 -1.00000000
vn -0.99605520 0.0000000e+0 -8.8735730e-2
vn 0.0000000e+0 0.0000000e+0 -1.00000000
vn -0.99605520 0.0000000e+0 -8.8735730e-2
vn 0.0000000e+0 0.99741803 -7.1814098e-2
vn 0.0000000e+0 0.0000000e+0 -1.00000000
vn 0.0000000e+0 0.0000000e+0 -1.00000000
vn 0.0000000e+0 0.99741803 -7.1814098e-2
vn 0.98081920 0.18302910 -6.7037662e-2
vn 0.0000000e+0 0.99741803 -7.1814098e-2
vn 0.98081920 0.18302910 -6.7037662e-2
vn 0.0000000e+0 0.0000000e+0 -1.00000000
vn 0.98081920 0.18302910 -6.7037662e-2
vn 0.0000000e+0 0.0000000e+0 -1.00000000
vn 0.0000000e+0 0.0000000e+0 -1.00000000
vn 0.98081920 -0.18302910 -6.7037662e-2
vn -0.81009806 0.0000000e+0 0.58629441
vn -5.7320246e-18 -1.00000000 1.2527880e-16
vn -0.99387419 0.0000000e+0 0.11051735
vn 0.0000000e+0 -0.81009806 0.58629441
vn -5.7320246e-18 -1.00000000 1.2527880e-16
vn 0.0000000e+0 -0.81009806 0.58629441
vn 0.79635116 -0.14860582 0.58629441
vn 0.0000000e+0 -1.00000000 2.5055760e-16
vn 0.97981704 -0.14680449 0.13567247
vn 0.97981704 -0.14680449 0.13567247
vn 0.0000000e+0 -0.81009806 0.58629441
vn 0.79635116 -0.14860582 0.58629441
vn 0.80529272 0.0000000e+0 0.59287742
vn 0.98775136 -4.2334700e-17 0.15603605
vn 0.80529272 0.0000000e+0 0.59287742
vn 0.98775136 -4.2334700e-17 0.15603605
vn 0.79635116 0.14860582 0.58629441
vn 0.0000000e+0 0.81009806 0.58629441
vn 0.97981704 0.14680449 0.13567247
vn 0.79635116 0.14860582 0.58629441
vn 0.97981704 0.14680449 0.13567247
vn 0.0000000e+0 1.00000000 0.0000000e+0
vn 0.0000000e+0 0.81009806 0.58629441
vn 0.0000000e+0 0.81009806 0.58629441
vn -0.81009806 0.0000000e+0 0.58629441
vn 5.7320246e-18 1.00000000 0.0000000e+0
vn -0.99387419 0.0000000e+0 0.11051735
vn -0.81009806 0.0000000e+0 0.58629441
vn -0.99387419 0.0000000e+0 0.11051735
vn 5.7320246e-18 1.00000000 0.0000000e+0
vn -0.99387419 0.0000000e+0 0.11051735
vn 0.71933980 0.0000000e+0 0.69465837
vn -0.99387419 0.0000000e+0 0.11051735
vn 0.71933980 0.0000000e+0 0.69465837
vn 0.71933980 0.0000000e+0 0.69465837
vn -1.1464049e-17 -1.00000000 0.0000000e+0
vn -5.7320246e-18 -1.00000000 1.2527880e-16
vn 0.71933980 3.6572294e-17 0.69465837
vn 0.98670311 -0.11210865 0.11768018
vn 0.71933980 3.6572294e-17 0.69465837
vn -5.7320246e-18 -1.00000000 1.2527880e-16
vn 0.71933980 3.6572294e-17 0.69465837
vn 0.99054911 -7.0204250e-18 0.13715851
vn 0.99054911 -1.0530637e-17 0.13715851
vn 0.71933980 -1.2325952e-32 0.69465837
vn 0.71933980 -1.2325952e-32 0.69465837
vn 0.99054911 -1.4040850e-17 0.13715851
vn 0.99054911 -1.0530637e-17 0.13715851
vn 0.71933980 -1.2325952e-32 0.69465837
vn 0.71933980 -1.2325952e-32 0.69465837
vn 0.98670311 0.11210865 0.11768018
vn 5.7320246e-18 1.00000000 0.0000000e+0
vn 0.71933980 -3.6572294e-17 0.69465837
vn 0.71933980 -3.6572294e-17 0.69465837
vn 0.71933980 -3.6572294e-17 0.69465837
vn 5.7320246e-18 1.00000000 0.0000000e+0
vn 1.1464049e-17 1.00000000 0.0000000e+0
vn 0.71933980 0.0000000e+0 0.69465837
vn -0.99387419 0.0000000e+0 0.11051735
vn 0.71933980 0.0000000e+0 0.69465837
vn 0.71933980 7.3784409e-17 0.69465837
vn 0.71933980 7.3784409e-17 0.69465837
vn -1.1030258e-17 1.00000000 -4.4010309e-17
vn 1.00000000 0.0000000e+0 0.0000000e+0
vn -1.1030258e-17 1.00000000 -4.4010309e-17
vn 1.00000000 0.0000000e+0 0.0000000e+0
vn 0.71933980 7.3784409e-17 0.69465837
vn 0.71933980 -4.1793228e-17 0.69465837
vn 0.71933980 -4.1793228e-17 0.69465837
vn 6.7757422e-17 1.00000000 0.0000000e+0
vn -0.99170257 0.12855350 -8.1891823e-18
vn 0.71933980 -4.1793228e-17 0.69465837
vn 0.71933980 -2.4651903e-32 0.69465837
vn -1.00000000 1.3993901e-17 -1.5536351e-33
vn -1.00000000 1.3993901e-17 -1.5536351e-33
vn -1.00000000 1.3993901e-17 -1.5536351e-33
vn -1.00000000 1.3993901e-17 -1.5536351e-33
vn 0.71933980 -2.4651903e-32 0.69465837
vn 0.71933980 4.1793228e-17 0.69465837
vn -0.99170257 -0.12855350 4.0945912e-18
vn 0.71933980 4.1793228e-17 0.69465837
vn -6.7757422e-17 -1.00000000 0.0000000e+0
vn 0.71933980 4.1793228e-17 0.69465837
vn 0.71933980 -5.5338306e-17 0.69465837
vn 0.71933980 -5.5338306e-17 0.69465837
vn 1.1030258e-17 -1.00000000 4.4010309e-17
vn 0.71933980 -5.5338306e-17 0.69465837
vn 0.71933980 -5.5338306e-17 0.69465837
vn 1.1030258e-17 -1.00000000 4.4010309e-17
vn 1.00000000 0.0000000e+0 0.0000000e+0
vn 1.00000000 0.0000000e+0 0.0000000e+0
vn -8.9817937e-17 1.00000000 -8.8020618e-17
vn 0.71933980 -8.9414045e-17 0.69465837
vn 0.71933980 -8.9414045e-17 0.69465837
vn -1.1030258e-17 1.00000000 -4.4010309e-17
vn -0.99170257 0.12855350 -6.1418867e-18
vn -0.99170257 0.12855350 -6.1418867e-18
vn -1.1030258e-17 1.00000000 -4.4010309e-17
vn 0.71933980 -1.7882809e-16 0.69465837
vn 0.71933980 4.9674469e-18 0.69465837
vn -1.00000000 2.7987802e-17 2.0644250e-18
vn -1.00000000 2.7987802e-17 2.0644250e-18
vn 0.71933980 4.9674469e-18 0.69465837
vn 0.71933980 4.9674469e-18 0.69465837
vn 0.71933980 1.9373043e-16 0.69465837
vn -0.99170257 -0.12855350 6.1418867e-18
vn 1.1030258e-17 -1.00000000 4.4010309e-17
vn 1.1030258e-17 -1.00000000 4.4010309e-17
vn -0.99170257 -0.12855350 6.1418867e-18
vn 0.71933980 9.6865215e-17 0.69465837
vn 8.9817937e-17 -1.00000000 8.8020618e-17
vn 1.00000000 0.0000000e+0 0.0000000e+0
vn 0.71933980 9.6865215e-17 0.69465837
vn 1.00000000 0.0000000e+0 0.0000000e+0
g cube2_default
usemtl default
f 1//1 10//50 9//45
f 1//6 16//95 4//22
f 2//8 10//52 3//16
f 2//7 13//75 9//46
f 2//12 25//142 6//33
f 3//17 22//120 2//9
f 4//21 10//54 1//4
f 4//20 16//92 12//69
f 5//30 9//49 13//79
f 5//23 14//82 8//41
f 5//29 17//100 1//5
f 6//34 13//77 2//13
f 6//35 24//137 7//39
f 7//38 11//62 14//85
f 7//36 13//74 6//31
f 7//37 24//131 11//61
f 8//43 14//83 12//71
f 8//42 19//106 5//26
f 9//47 5//24 1//2
f 9//48 10//56 2//14
f 10//51 11//58 3//15
f 11//65 10//57 15//90
f 11//64 22//126 3//18
f 12//67 10//53 4//19
f 12//66 14//80 15//87
f 12//72 19//109 8//44
f 13//76 14//84 5//27
f 14//86 13//78 7//40
f 15//89 10//55 12//70
f 15//88 14//81 11//59
f 16//91 1//3 17//96
f 17//97 5//25 18//102
f 17//98 20//112 16//93
f 18//103 5//28 19//108
f 18//104 20//113 17//99
f 19//107 12//68 20//111
f 19//105 20//110 18//101
f 20//114 12//73 16//94
f 21//118 2//11 22//125
f 21//115 25//139 2//10
f 21//117 26//145 25//141
f 22//121 11//60 23//127
f 22//122 27//151 21//116
f 23//129 11//63 24//134
f 23//128 28//157 22//123
f 24//132 6//32 25//138
f 24//135 28//161 23//130
f 25//144 29//170 24//136
f 26//150 21//119 27//155
f 26//148 35//201 30//174
f 27//153 22//124 28//162
f 27//154 31//181 26//149
f 28//158 24//133 29//165
f 28//163 32//186 27//156
f 29//166 25//140 30//171
f 29//167 34//193 28//160
f 30//173 25//143 26//147
f 30//172 35//198 29//168
f 31//175 27//152 32//182
f 31//176 35//199 26//146
f 31//180 40//228 35//204
f 32//183 28//159 33//187
f 32//184 37//209 31//177
f 33//192 28//164 34//197
f 33//191 37//211 32//185
f 34//195 29//169 35//202
f 34//194 39//220 33//189
f 35//203 39//222 34//196
f 36//206 31//179 37//212
f 36//208 38//218 40//227
f 36//205 40//226 31//178
f 37//210 33//188 38//215
f 37//213 38//217 36//207
f 38//216 33//190 39//223
f 39//221 35//200 40//225
f 39//219 40//224 38//214
