# Exported from Wings 3D 0.98.32a
mtllib right_upper_arm.mtl
o cube1
#26 vertices, 48 faces
v -6.4000000e-2 4.7716098e-2 -0.11792308
v -3.8400000e-2 4.7716098e-2 0.17007692
v 3.8400000e-2 4.7716098e-2 0.17007692
v 6.4000000e-2 4.7716098e-2 -0.11792308
v -6.4000000e-2 3.1272488e-2 -0.11792308
v -3.8400000e-2 1.5716098e-2 0.17007692
v 3.8400000e-2 1.5716098e-2 0.17007692
v 6.4000000e-2 3.1272488e-2 -0.11792308
v -5.1200000e-2 -4.8283902e-2 -8.5923077e-2
v -5.1200000e-2 -4.8283902e-2 4.2076923e-2
v 5.1200000e-2 -4.8283902e-2 4.2076923e-2
v 5.1200000e-2 -4.8283902e-2 -8.5923077e-2
v 6.4000000e-2 4.7716098e-2 2.6076923e-2
v 6.4000000e-2 1.5716098e-2 2.6076923e-2
v -6.4000000e-2 4.7716098e-2 2.6076923e-2
v -6.4000000e-2 1.5716098e-2 2.6076923e-2
v -5.7600000e-2 -1.6283902e-2 -0.10192308
v 5.7600000e-2 -1.6283902e-2 -0.10192308
v -3.7888000e-2 1.2526461e-2 -0.11792308
v 3.7888000e-2 1.2526461e-2 -0.11792308
v -3.4099200e-2 -1.6283902e-2 -0.10192308
v 3.4099200e-2 -1.6283902e-2 -0.10192308
v -3.7888000e-2 1.2526461e-2 -0.40592308
v -3.4099200e-2 -1.6283902e-2 -0.38992308
v 3.4099200e-2 -1.6283902e-2 -0.38992308
v 3.7888000e-2 1.2526461e-2 -0.40592308
vn 0.99424680 -8.5889565e-2 6.4002177e-2
vn -0.99185335 -0.11445868 5.5911885e-2
vn 0.0000000e+0 1.00000000 -9.4114772e-17
vn -1.00000000 0.0000000e+0 0.0000000e+0
vn 6.7335131e-16 0.0000000e+0 -1.00000000
vn 6.7335131e-16 0.0000000e+0 -1.00000000
vn 6.7335131e-16 0.0000000e+0 -1.00000000
vn 0.0000000e+0 1.00000000 -1.2548636e-16
vn 0.0000000e+0 1.00000000 -1.2548636e-16
vn 0.0000000e+0 0.0000000e+0 1.00000000
vn -0.98456251 0.0000000e+0 0.17503333
vn 0.0000000e+0 1.00000000 -1.5685795e-16
vn 0.0000000e+0 0.0000000e+0 1.00000000
vn 0.98456251 0.0000000e+0 0.17503333
vn 0.98456251 0.0000000e+0 0.17503333
vn 0.0000000e+0 0.0000000e+0 1.00000000
vn 1.00000000 0.0000000e+0 0.0000000e+0
vn -1.0100270e-15 0.0000000e+0 -1.00000000
vn 0.0000000e+0 1.00000000 -4.7057386e-17
vn 0.0000000e+0 1.00000000 -4.7057386e-17
vn 1.00000000 0.0000000e+0 0.0000000e+0
vn -1.0100270e-15 0.0000000e+0 -1.00000000
vn -0.99891982 -4.6198332e-2 -4.9908283e-3
vn -0.12184075 -0.28028857 -0.95215185
vn -0.99891982 -4.6198332e-2 -4.9908283e-3
vn -0.99891982 -4.6198332e-2 -4.9908283e-3
vn -0.12184075 -0.28028857 -0.95215185
vn -0.12184075 -0.28028857 -0.95215185
vn 0.0000000e+0 0.0000000e+0 1.00000000
vn -0.98330165 -5.0592733e-2 0.17480918
vn 0.0000000e+0 -0.89442719 0.44721360
vn -0.98330165 -5.0592733e-2 0.17480918
vn 0.0000000e+0 0.0000000e+0 1.00000000
vn 0.0000000e+0 -0.89442719 0.44721360
vn -0.98330165 -5.0592733e-2 0.17480918
vn 0.0000000e+0 0.0000000e+0 1.00000000
vn 0.0000000e+0 -0.89442719 0.44721360
vn 0.98172146 -7.5913533e-2 0.17452826
vn 0.98172146 -7.5913533e-2 0.17452826
vn 0.99756663 -6.9316300e-2 -7.4882737e-3
vn 0.12438289 -0.17325730 -0.97699069
vn 0.12438289 -0.17325730 -0.97699069
vn 0.99756663 -6.9316300e-2 -7.4882737e-3
vn 0.0000000e+0 -1.00000000 6.6174449e-17
vn -0.98058068 -0.19611614 -2.3071782e-17
vn 0.0000000e+0 -0.44721360 -0.89442719
vn 0.0000000e+0 -1.00000000 6.6174449e-17
vn 0.0000000e+0 -0.44721360 -0.89442719
vn -0.98058068 -0.19611614 -2.3071782e-17
vn 0.0000000e+0 -0.97324899 0.22975292
vn -0.98082756 -0.17445152 8.6855979e-2
vn -0.98082756 -0.17445152 8.6855979e-2
vn 0.0000000e+0 -0.97324899 0.22975292
vn 0.0000000e+0 -0.97324899 0.22975292
vn 0.0000000e+0 -0.97324899 0.22975292
vn 0.98082756 -0.17445152 8.6855979e-2
vn 0.98082756 -0.17445152 8.6855979e-2
vn 0.0000000e+0 -0.97324899 0.22975292
vn 0.0000000e+0 -0.97324899 0.22975292
vn 0.98058068 -0.19611614 -2.3071782e-17
vn 0.98058068 -0.19611614 -2.3071782e-17
vn 0.0000000e+0 -1.00000000 1.3234890e-16
vn 0.0000000e+0 -0.44721360 -0.89442719
vn 0.0000000e+0 -0.44721360 -0.89442719
vn 0.0000000e+0 -0.44721360 -0.89442719
vn 0.0000000e+0 1.00000000 -8.3657575e-17
vn 0.99613315 0.0000000e+0 8.7856395e-2
vn 0.0000000e+0 1.00000000 -8.3657575e-17
vn 0.0000000e+0 1.00000000 -8.3657575e-17
vn 0.99613315 0.0000000e+0 8.7856395e-2
vn -0.99613315 0.0000000e+0 8.7856395e-2
vn -0.99613315 0.0000000e+0 8.7856395e-2
vn 0.0000000e+0 1.00000000 -6.2743181e-17
vn 0.0000000e+0 1.00000000 -6.2743181e-17
vn 0.0000000e+0 1.00000000 -6.2743181e-17
vn -0.99613315 0.0000000e+0 8.7856395e-2
vn -0.99613315 0.0000000e+0 8.7856395e-2
vn 0.0000000e+0 -0.38397455 -0.92334368
vn 0.0000000e+0 -0.38397455 -0.92334368
vn -0.98588072 -0.16728225 -7.4734723e-3
vn -0.98588072 -0.16728225 -7.4734723e-3
vn 0.98588072 -0.16728225 -7.4734723e-3
vn 8.1719999e-2 -0.42744794 -0.90033888
vn 0.98588072 -0.16728225 -7.4734723e-3
vn 8.1719999e-2 -0.42744794 -0.90033888
vn 8.1719999e-2 -0.42744794 -0.90033888
vn 0.0000000e+0 1.00000000 -5.9616621e-17
vn -0.12276238 -0.17100004 -0.97759316
vn -0.99146336 -0.13038560 7.8946040e-18
vn -0.12276238 -0.17100004 -0.97759316
vn -0.12276238 -0.17100004 -0.97759316
vn 5.0010687e-2 -0.16956485 -0.98424930
vn 5.0010687e-2 -0.16956485 -0.98424930
vn 0.99146336 -0.13038560 7.7933912e-18
vn 0.0000000e+0 1.00000000 -5.9616621e-17
vn 0.0000000e+0 1.00000000 -5.9616621e-17
vn 5.0010687e-2 -0.16956485 -0.98424930
vn 0.99146336 -0.13038560 7.7933912e-18
vn 5.0010687e-2 -0.16956485 -0.98424930
vn 5.0010687e-2 -0.16956485 -0.98424930
vn -7.1187223e-2 -0.43557323 -0.89733402
vn -7.1187223e-2 -0.43557323 -0.89733402
vn -0.99146336 -0.13038560 7.8946040e-18
vn 0.0000000e+0 -1.00000000 6.6240690e-17
vn -7.1187223e-2 -0.43557323 -0.89733402
vn -7.1187223e-2 -0.43557323 -0.89733402
vn -7.1187223e-2 -0.43557323 -0.89733402
vn -0.99146336 -0.13038560 7.8946040e-18
vn 0.0000000e+0 -1.00000000 6.6240690e-17
vn 0.0000000e+0 -1.00000000 4.4160460e-17
vn 0.0000000e+0 -0.46007470 -0.88788021
vn 0.0000000e+0 -0.46007470 -0.88788021
vn 0.0000000e+0 -0.46007470 -0.88788021
vn 0.99146336 -0.13038560 7.6921783e-18
vn 0.0000000e+0 -0.48550942 -0.87423143
vn -0.99146336 -0.13038560 7.8946040e-18
vn 0.0000000e+0 1.00000000 -5.9616621e-17
vn -0.99146336 -0.13038560 7.8946040e-18
vn 0.0000000e+0 1.00000000 -5.9616621e-17
vn 0.0000000e+0 -0.48550942 -0.87423143
vn 0.0000000e+0 -0.48550942 -0.87423143
vn -0.99146336 -0.13038560 7.8946040e-18
vn 0.0000000e+0 -1.00000000 8.8320920e-17
vn 0.0000000e+0 -0.48550942 -0.87423143
vn 0.0000000e+0 -1.00000000 6.6240690e-17
vn 0.99146336 -0.13038560 7.7933912e-18
vn 0.99146336 -0.13038560 7.7933912e-18
vn 0.0000000e+0 -0.48550942 -0.87423143
vn 0.0000000e+0 -1.00000000 6.6240690e-17
vn 0.99146336 -0.13038560 7.8946040e-18
vn 0.0000000e+0 1.00000000 -5.9616621e-17
vn 0.0000000e+0 -0.48550942 -0.87423143
g cube1_default
usemtl default
f 1//4 5//26 15//77
f 1//7 19//91 5//28
f 2//10 6//33 3//16
f 2//9 13//68 15//74
f 2//11 15//76 6//35
f 3//13 6//29 7//36
f 3//12 13//66 2//8
f 3//14 14//1 13//67
f 4//17 14//1 8//40
f 4//20 15//75 13//69
f 4//22 20//99 1//5
f 5//25 17//80 16//2
f 5//24 21//102 17//79
f 6//31 11//55 7//37
f 6//30 15//71 16//2
f 6//32 16//2 10//52
f 7//38 11//56 14//1
f 7//39 14//1 3//15
f 8//43 14//1 18//84
f 8//41 20//92 4//18
f 9//44 11//54 10//50
f 9//49 16//2 17//81
f 9//48 21//106 12//65
f 10//51 16//2 9//45
f 11//58 6//34 10//53
f 11//59 9//47 12//62
f 12//61 14//1 11//57
f 12//63 22//111 18//85
f 13//70 14//1 4//21
f 15//73 4//19 1//3
f 16//2 15//72 5//23
f 17//78 21//101 9//46
f 18//82 14//1 12//60
f 18//83 20//93 8//42
f 19//90 1//6 20//100
f 19//88 21//107 5//27
f 19//89 23//118 21//108
f 20//95 23//117 19//87
f 21//104 25//125 22//110
f 22//112 12//64 21//105
f 22//113 20//97 18//86
f 22//114 25//127 20//98
f 23//119 20//96 26//131
f 23//115 25//124 24//121
f 24//122 21//103 23//116
f 25//129 21//109 24//123
f 25//128 23//120 26//132
f 26//130 20//94 25//126
