# Exported from Wings 3D 0.98.32a
mtllib right_wing.mtl
o cube2
#19 vertices, 34 faces
v -0.16366918 -0.23083607 -1.0000000e-2
v -0.11866918 -0.23083607 1.4134166e-17
v -1.1394817e-2 -0.10804847 1.0000000e-2
v 3.6051832e-3 -0.10804847 -1.0000000e-2
v -0.12453418 -0.14542607 -1.0000000e-2
v -7.9534177e-2 -0.14542607 8.9044847e-18
v 8.2465823e-2 -0.46571559 2.8515913e-17
v 3.7465823e-2 -0.46571559 -1.0000000e-2
v 0.15746582 -0.46571559 -1.0000000e-2
v 0.14246582 -0.46571559 1.0000000e-2
v -0.22983418 9.4573926e-2 -1.0000000e-2
v -0.18483418 9.4573926e-2 -5.7907915e-18
v 0.10976582 4.5739262e-3 1.0000000e-2
v 0.12476582 4.5739262e-3 -1.0000000e-2
v 1.8605183e-2 -0.10804847 6.6158424e-18
v 0.17246582 -0.46571559 2.8515913e-17
v 0.13976582 4.5739262e-3 -2.8006296e-19
v 8.2465823e-2 -0.48071559 -6.6666667e-3
v 0.12746582 -0.48071559 -3.3333333e-3
vn -0.18380341 -3.5443591e-2 0.98232381
vn 3.7162899e-2 -2.5866206e-2 0.99897440
vn 0.21870697 -6.0353846e-2 -0.97392231
vn -0.18601773 1.0168138e-2 0.98249377
vn -0.18291521 -0.28271543 0.94160183
vn 0.23472131 -0.17602743 -0.95599176
vn 6.2621105e-2 -0.26382039 0.96253696
vn 0.94503960 -0.27134997 0.18239888
vn 0.73832842 -0.65681207 0.15319612
vn -0.14897631 -0.93552310 0.32031640
vn 0.18858071 -0.98174311 2.4855194e-2
vn 1.7082755e-17 -6.0017416e-17 -1.00000000
vn -0.21673642 -4.2286654e-2 0.97531388
vn 1.7082755e-17 -6.0017416e-17 -1.00000000
vn 1.7082755e-17 -6.0017416e-17 -1.00000000
vn -0.21673642 -4.2286654e-2 0.97531388
vn 1.5246386e-17 -6.3186603e-17 -1.00000000
vn -0.21692998 2.0900373e-3 0.97618493
vn -0.21692998 2.0900373e-3 0.97618493
vn 1.5246386e-17 -6.3186603e-17 -1.00000000
vn -0.21692998 2.0900373e-3 0.97618493
vn 1.5246386e-17 -6.3186603e-17 -1.00000000
vn -0.21692998 2.0900373e-3 0.97618493
vn -0.43628992 -0.68363566 0.58505845
vn -0.43628992 -0.68363566 0.58505845
vn -0.43628992 -0.68363566 0.58505845
vn -0.43628992 -0.68363566 0.58505845
vn -0.43628992 -0.68363566 0.58505845
vn -0.21595451 -9.4750041e-2 0.97179529
vn 0.16490428 0.64972286 -0.74206926
vn 0.0000000e+0 -5.7824116e-17 -1.00000000
vn -0.14433300 -5.3616095e-2 0.98807555
vn -0.14433300 -5.3616095e-2 0.98807555
vn 0.25643482 0.91631260 -0.30759130
vn 0.25643482 0.91631260 -0.30759130
vn -0.14433300 -5.3616095e-2 0.98807555
vn -0.14433300 -5.3616095e-2 0.98807555
vn 0.14183950 0.98415696 0.10637963
vn 0.19633702 -0.21122192 0.95751610
vn 0.19633702 -0.21122192 0.95751610
vn 0.14183950 0.98415696 0.10637963
vn 0.19633702 -0.21122192 0.95751610
vn 0.16581602 0.96589124 -0.19889485
vn 0.25723290 -0.27673449 -0.92587756
vn 0.25723290 -0.27673449 -0.92587756
vn 0.16581602 0.96589124 -0.19889485
vn 0.16581602 0.96589124 -0.19889485
vn 0.25723290 -0.27673449 -0.92587756
vn 0.25723290 -0.27673449 -0.92587756
vn 0.0000000e+0 1.00000000 6.0233454e-17
vn 0.67215373 -0.72311171 0.15911889
vn 0.67215373 -0.72311171 0.15911889
g cube2_default
usemtl default
f 1//12 5//17 4//3
f 1//16 8//28 2//1
f 2//1 5//18 1//13
f 2//1 10//7 3//2
f 3//2 6//4 2//1
f 3//2 10//7 15//8
f 4//3 5//20 14//45
f 4//3 9//6 1//15
f 4//3 15//8 9//6
f 6//4 3//2 12//36
f 6//4 5//21 2//1
f 6//4 12//37 5//23
f 7//5 2//1 8//25
f 7//5 10//7 2//1
f 7//5 18//10 10//7
f 8//26 1//14 9//6
f 8//27 18//10 7//5
f 9//6 15//8 16//9
f 9//6 18//10 8//24
f 10//7 19//11 16//9
f 11//29 5//19 12//32
f 11//31 14//48 5//22
f 12//33 3//2 13//39
f 12//35 14//47 11//30
f 13//41 14//46 12//34
f 13//42 15//8 17//52
f 14//43 13//38 17//50
f 14//44 15//8 4//3
f 15//8 13//40 3//2
f 16//9 15//8 10//7
f 16//9 19//11 9//6
f 17//51 15//8 14//49
f 18//10 9//6 19//11
f 19//11 10//7 18//10
