# Exported from Wings 3D 0.98.32a
mtllib shoulder.mtl
o cube1
#8 vertices, 12 faces
v -1.2000000e-2 -1.0000000e-2 -2.0000000e-2
v -2.0000000e-2 -1.0000000e-2 2.0000000e-2
v 2.0000000e-2 -1.0000000e-2 2.0000000e-2
v 1.2000000e-2 -1.0000000e-2 -2.0000000e-2
v -1.2000000e-2 1.0000000e-2 -2.0000000e-2
v -2.0000000e-2 1.0000000e-2 2.0000000e-2
v 2.0000000e-2 1.0000000e-2 2.0000000e-2
v 1.2000000e-2 1.0000000e-2 -2.0000000e-2
vn -0.53240306 -0.54294671 -0.64942733
vn -0.60722393 -0.61924933 0.49780455
vn 0.60722393 -0.61924933 0.49780455
vn 0.53240306 -0.54294671 -0.64942733
vn -0.53240306 0.54294671 -0.64942733
vn -0.60722393 0.61924933 0.49780455
vn 0.60722393 0.61924933 0.49780455
vn 0.53240306 0.54294671 -0.64942733
g cube1_default
usemtl default
f 1//1 3//3 2//2
f 1//1 6//6 5//5
f 1//1 8//8 4//4
f 2//2 6//6 1//1
f 3//3 6//6 2//2
f 3//3 8//8 7//7
f 4//4 3//3 1//1
f 4//4 8//8 3//3
f 5//5 8//8 1//1
f 6//6 8//8 5//5
f 7//7 6//6 3//3
f 7//7 8//8 6//6
