# Exported from Wings 3D 0.98.29b
mtllib tank_cannon.mtl
o cylinder4
#49 vertices, 94 faces
v 0.64936063 1.6272706e-17 -3.5067999e-2
v 0.64936063 -2.6516504e-2 -2.4084503e-2
v 0.64936063 -3.7500000e-2 2.4320011e-3
v 0.64936063 -2.6516504e-2 2.8948505e-2
v 0.64936063 1.6272706e-17 3.9932001e-2
v 0.64936063 2.6516504e-2 2.8948505e-2
v 0.64936063 3.7500000e-2 2.4320011e-3
v 0.64936063 2.6516504e-2 -2.4084503e-2
v -0.10063937 1.6272706e-17 -3.5067999e-2
v -0.10063937 -2.6516504e-2 -2.4084503e-2
v -0.10063937 -3.7500000e-2 2.4320011e-3
v -0.10063937 -2.6516504e-2 2.8948505e-2
v -0.10063937 1.6272706e-17 3.9932001e-2
v -0.10063937 2.6516504e-2 2.8948505e-2
v -0.10063937 3.7500000e-2 2.4320011e-3
v -0.10063937 2.6516504e-2 -2.4084503e-2
v 0.32861837 -7.8506710e-16 2.4320011e-3
v 0.51721661 1.6272706e-17 -3.5067999e-2
v 0.51721661 -2.6516504e-2 -2.4084503e-2
v 0.51721661 -3.7500000e-2 2.4320011e-3
v 0.51721661 -2.6516504e-2 2.8948505e-2
v 0.51721661 1.6272706e-17 3.9932001e-2
v 0.51721661 2.6516504e-2 2.8948505e-2
v 0.51721661 3.7500000e-2 2.4320011e-3
v 0.51721661 2.6516504e-2 -2.4084503e-2
v 0.64936063 1.3449473e-17 -5.3720736e-2
v 0.64936063 -3.9705981e-2 -3.7273980e-2
v 0.64936063 -5.6152737e-2 2.4320011e-3
v 0.64936063 -3.9705981e-2 4.2137982e-2
v 0.64936063 1.6854446e-17 5.8584738e-2
v 0.64936063 3.9705981e-2 4.2137982e-2
v 0.64936063 5.6152737e-2 2.4320011e-3
v 0.64936063 3.9705981e-2 -3.7273980e-2
v 0.51721661 1.3449473e-17 -5.3720736e-2
v 0.51721661 -3.9705981e-2 -3.7273980e-2
v 0.51721661 -5.6152737e-2 2.4320011e-3
v 0.51721661 -3.9705981e-2 4.2137982e-2
v 0.51721661 1.6854446e-17 5.8584738e-2
v 0.51721661 3.9705981e-2 4.2137982e-2
v 0.51721661 5.6152737e-2 2.4320011e-3
v 0.51721661 3.9705981e-2 -3.7273980e-2
v 0.32861837 9.2868701e-18 -3.2217999e-2
v 0.32861837 -2.4501250e-2 -2.2069249e-2
v 0.32861837 -3.4650000e-2 2.4320011e-3
v 0.32861837 -2.4501250e-2 2.6933251e-2
v 0.32861837 9.2868701e-18 3.7082001e-2
v 0.32861837 2.4501250e-2 2.6933251e-2
v 0.32861837 3.4650000e-2 2.4320011e-3
v 0.32861837 2.4501250e-2 -2.2069249e-2
vt 0.0000000e+0 0.84075159
vt 0.0000000e+0 0.88210450
vt 4.3021142e-16 0.94058634
vt 1.6008028e-14 0.0000000e+0
vt 2.3449757e-2 0.89181771
vt 2.3449757e-2 0.93087313
vt 3.9055425e-2 0.84075159
vt 3.9055425e-2 6.6613381e-16
vt 4.1352906e-2 0.98193924
vt 4.1352906e-2 0.84075159
vt 5.1066113e-2 0.95848949
vt 5.1066113e-2 0.86420135
vt 7.8110849e-2 0.84075159
vt 7.8110849e-2 6.6613381e-16
vt 7.8110849e-2 0.0000000e+0
vt 7.8110849e-2 0.84075159
vt 9.0121538e-2 0.95848949
vt 9.0121538e-2 0.86420135
vt 9.9834745e-2 0.84075159
vt 9.9834745e-2 0.98193924
vt 0.11716627 0.0000000e+0
vt 0.11716627 0.84075159
vt 0.11773789 0.93087313
vt 0.11773789 0.89181771
vt 0.14118765 0.94058634
vt 0.14118765 0.88210450
vt 0.15622170 6.6613381e-16
vt 0.15622170 0.84075159
vt 0.15622170 0.84075159
vt 0.15622170 0.0000000e+0
vt 0.19527712 0.84075159
vt 0.19527712 2.7755576e-16
vt 0.23433255 0.84075159
vt 0.23433255 0.0000000e+0
vt 0.23433255 0.84075159
vt 0.27338797 1.1102230e-16
vt 0.27338797 0.84075159
vt 0.31244340 0.0000000e+0
vt 0.31244340 0.84075159
vt 0.31244340 0.43645928
vt 0.31541159 0.0000000e+0
vt 0.35149860 1.2270564e-4
vt 0.35149860 0.43659207
vt 0.38758560 1.1709383e-16
vt 0.39055380 0.43645928
vt 0.42367094 -3.6811125e-4
vt 0.42960719 0.43606089
vt 0.45975293 -9.8161108e-4
vt 0.46865697 0.43539693
vt 0.49582992 -1.8404711e-3
vt 0.50770133 0.43446742
vt 0.53190024 -2.9446516e-3
vt 0.54673847 0.43327242
vt 0.56796221 -4.2941016e-3
vt 0.58576658 0.43181198
vt 0.60401417 -5.8887586e-3
vt 0.62478385 0.43008616
vt 0.62488499 0.0000000e+0
vt 0.62488499 0.17981584
vt 0.62488499 0.17981584
vt 0.62488499 0.35963167
vt 0.62488499 0.35963167
vt 0.62488499 0.53944751
vt 0.62488499 0.56706387
vt 0.62488499 0.69534037
vt 0.62488499 0.60611929
vt 0.62488499 0.65925316
vt 0.65040250 0.63373565
vt 0.65040250 0.72085788
vt 0.65250135 0.53944751
vt 0.65250135 0.63373565
vt 0.66844611 0.67729676
vt 0.68336683 0.17981584
vt 0.68336683 0.35963167
vt 0.68336683 0.35963167
vt 0.68336683 0.53944751
vt 0.68336683 9.7144515e-17
vt 0.68336683 0.17981584
vt 0.68648971 0.63373565
vt 0.68648971 0.72085788
vt 0.69155677 0.53944751
vt 0.69155677 0.63373565
vt 0.71200723 0.65925316
vt 0.71200723 0.69534037
vt 0.71917313 0.56706387
vt 0.71917313 0.60611929
vt 0.74184867 0.17981584
vt 0.74184867 0.35963167
vt 0.74184867 0.0000000e+0
vt 0.74184867 0.35963167
vt 0.74184867 0.53944751
vt 0.74184867 0.17981584
vt 0.74184867 0.17981584
vt 0.74184867 0.0000000e+0
vt 0.80033051 0.17981584
vt 0.80033051 6.9388939e-17
vt 0.85881235 4.1352906e-2
vt 0.85881235 0.17981584
vt 0.85881235 1.3877788e-17
vt 0.85881235 9.9834745e-2
vt 0.88226211 9.0121538e-2
vt 0.88226211 5.1066113e-2
vt 0.90016525 0.14118765
vt 0.90016525 0.0000000e+0
vt 0.90987846 2.3449757e-2
vt 0.90987846 0.11773789
vt 0.94893389 0.11773789
vt 0.94893389 2.3449757e-2
vt 0.95864709 0.14118765
vt 0.95864709 0.0000000e+0
vt 0.97655024 5.1066113e-2
vt 0.97655024 9.0121538e-2
vt 1.00000000 9.9834745e-2
vt 1.00000000 4.1352906e-2
vn 1.00000000 -5.1083281e-16 8.0102671e-16
vn -0.73450956 -4.8181276e-17 -0.67859834
vn -0.73450956 -0.47984149 -0.47984149
vn -0.73450956 -0.67859834 -7.7469595e-16
vn -0.73450956 -0.47984149 0.47984149
vn -0.73450956 -8.1546942e-17 0.67859834
vn -0.73450956 0.47984149 0.47984149
vn -0.73450956 0.67859834 -8.3585616e-16
vn -0.73450956 0.47984149 -0.47984149
vn 0.73450956 -6.1160207e-17 -0.67859834
vn 0.73450956 -0.47984149 -0.47984149
vn 0.73450956 -0.67859834 -5.5044186e-16
vn 0.73450956 -0.47984149 0.47984149
vn 0.73450956 -2.0386736e-17 0.67859834
vn 0.73450956 0.47984149 0.47984149
vn 0.73450956 0.67859834 -6.5237554e-16
vn 0.73450956 0.47984149 -0.47984149
vn -0.73450956 -8.1546942e-17 -0.67859834
vn -0.73450956 -0.47984149 -0.47984149
vn -0.73450956 -0.67859834 -4.3831481e-16
vn -0.73450956 -0.47984149 0.47984149
vn -0.73450956 -5.0966839e-17 0.67859834
vn -0.73450956 0.47984149 0.47984149
vn -0.73450956 0.67859834 -5.6063523e-16
vn -0.73450956 0.47984149 -0.47984149
vn 0.73727913 -2.8212815e-15 0.67558825
vn 0.48198600 0.61955205 0.61955205
vn 0.73727913 0.67558825 3.5722701e-15
vn 0.48198600 0.61955205 -0.61955205
vn 0.73727913 -1.2239084e-14 -0.67558825
vn 0.48198600 -0.61955205 -0.61955205
vn 0.73727913 -0.67558825 2.0296989e-17
vn 0.48198600 -0.61955205 0.61955205
vn 1.00000000 0.0000000e+0 0.0000000e+0
vn 1.00000000 0.0000000e+0 0.0000000e+0
vn 8.8852884e-3 -2.1179783e-15 0.99996053
vn 8.8852884e-3 -2.1029571e-15 0.99996053
vn 8.8852884e-3 -2.1179783e-15 0.99996053
vn 8.8852884e-3 -2.1029571e-15 0.99996053
vn 1.00000000 0.0000000e+0 0.0000000e+0
vn 1.00000000 0.0000000e+0 0.0000000e+0
vn 1.00000000 0.0000000e+0 0.0000000e+0
vn 8.8852884e-3 0.70707887 0.70707887
vn 8.8852884e-3 0.70707887 0.70707887
vn 1.00000000 0.0000000e+0 0.0000000e+0
vn 1.00000000 -3.5072879e-15 0.0000000e+0
vn 1.00000000 -3.5072879e-15 0.0000000e+0
vn 8.8852884e-3 0.99996053 3.1093723e-15
vn 8.8852884e-3 0.99996053 3.0943512e-15
vn 8.8852884e-3 0.99996053 3.1093723e-15
vn 8.8852884e-3 0.99996053 3.0943512e-15
vn 1.00000000 -3.5072879e-15 0.0000000e+0
vn 1.00000000 -3.5072879e-15 0.0000000e+0
vn 1.00000000 -5.2609319e-15 2.9605947e-15
vn 8.8852884e-3 0.70707887 -0.70707887
vn 8.8852884e-3 0.70707887 -0.70707887
vn 1.00000000 -5.2609319e-15 2.9605947e-15
vn 1.00000000 9.8607613e-31 2.9605947e-15
vn 1.00000000 8.8746852e-31 2.9605947e-15
vn 8.8852884e-3 -7.9011104e-15 -0.99996053
vn 8.8852884e-3 -7.9011104e-15 -0.99996053
vn 1.00000000 9.8607613e-31 2.9605947e-15
vn 1.00000000 8.8746852e-31 2.9605947e-15
vn 8.8852884e-3 -7.9011104e-15 -0.99996053
vn 8.8852884e-3 -7.9011104e-15 -0.99996053
vn 1.00000000 -8.7682198e-15 2.9605947e-15
vn 8.8852884e-3 -0.70707887 -0.70707887
vn 1.00000000 -8.7682198e-15 2.9605947e-15
vn 8.8852884e-3 -0.70707887 -0.70707887
vn 1.00000000 1.4002281e-29 0.0000000e+0
vn 1.00000000 1.4199496e-29 0.0000000e+0
vn 8.8852884e-3 -0.99996053 6.0084490e-16
vn 8.8852884e-3 -0.99996053 6.0084490e-16
vn 1.00000000 1.3805066e-29 0.0000000e+0
vn 8.8852884e-3 -0.99996053 6.0084490e-16
vn 8.8852884e-3 -0.99996053 6.0084490e-16
vn 1.00000000 1.3805066e-29 0.0000000e+0
vn 1.00000000 7.0145758e-15 0.0000000e+0
vn 8.8852884e-3 -0.70707887 0.70707887
vn 8.8852884e-3 -0.70707887 0.70707887
vn 1.00000000 7.0145758e-15 0.0000000e+0
vn 0.0000000e+0 -7.5106046e-17 -1.00000000
vn 0.0000000e+0 -7.5106046e-17 -1.00000000
vn -1.00000000 -1.8795943e-16 0.0000000e+0
vn -1.00000000 -1.8795943e-16 0.0000000e+0
vn -1.00000000 -1.8795943e-16 0.0000000e+0
vn 0.0000000e+0 -7.5106046e-17 -1.00000000
vn 0.0000000e+0 -7.5106046e-17 -1.00000000
vn -1.00000000 8.9872972e-16 0.0000000e+0
vn 0.0000000e+0 -0.70710678 -0.70710678
vn -1.00000000 8.9872972e-16 0.0000000e+0
vn 0.0000000e+0 -0.70710678 -0.70710678
vn -1.00000000 1.4890642e-15 0.0000000e+0
vn 0.0000000e+0 -1.00000000 -1.0815271e-15
vn 0.0000000e+0 -1.00000000 -1.0965483e-15
vn 0.0000000e+0 -1.00000000 -1.0965483e-15
vn 0.0000000e+0 -1.00000000 -1.0815271e-15
vn -1.00000000 3.8108475e-16 0.0000000e+0
vn 0.0000000e+0 -0.70710678 0.70710678
vn -1.00000000 3.8108475e-16 0.0000000e+0
vn -1.00000000 3.8108475e-16 0.0000000e+0
vn 0.0000000e+0 -0.70710678 0.70710678
vn 0.0000000e+0 -1.2016967e-16 1.00000000
vn 0.0000000e+0 -1.2016967e-16 1.00000000
vn -1.00000000 1.7637422e-17 0.0000000e+0
vn -1.00000000 1.7637422e-17 0.0000000e+0
vn -1.00000000 1.7637422e-17 0.0000000e+0
vn 0.0000000e+0 -1.2016967e-16 1.00000000
vn 0.0000000e+0 -1.2016967e-16 1.00000000
vn 0.0000000e+0 0.70710678 0.70710678
vn -1.00000000 -2.8193915e-16 0.0000000e+0
vn -1.00000000 -2.8193915e-16 0.0000000e+0
vn 0.0000000e+0 0.70710678 0.70710678
vn 0.0000000e+0 1.00000000 -1.2016967e-15
vn 0.0000000e+0 1.00000000 -1.2016967e-15
vn -1.00000000 -1.4890642e-15 0.0000000e+0
vn 0.0000000e+0 1.00000000 -1.2016967e-15
vn 0.0000000e+0 1.00000000 -1.2016967e-15
vn 0.0000000e+0 0.70710678 -0.70710678
vn -1.00000000 -2.6064890e-16 0.0000000e+0
vn -1.00000000 -2.6064890e-16 0.0000000e+0
vn -1.00000000 -2.6064890e-16 0.0000000e+0
vn 0.0000000e+0 0.70710678 -0.70710678
g cylinder4_cylinder4_auv
usemtl cylinder4_auv
f 1/6/35 27/9/11 26/3/10
f 1/6/34 33/2/17 8/5/78
f 1/55/37 43/56/27 2/57/43
f 1/55/36 49/52/33 42/54/26
f 2/11/45 27/9/11 1/6/40
f 2/40/44 43/41/27 3/43/50
f 3/17/47 27/9/11 2/11/42
f 3/17/46 29/25/13 28/20/12
f 3/43/48 43/41/27 44/42/28
f 3/43/49 45/44/29 4/45/55
f 4/23/57 29/25/13 3/17/53
f 4/45/56 45/44/29 5/47/65
f 5/24/59 29/25/13 4/23/54
f 5/24/58 31/19/15 30/26/14
f 5/47/60 45/44/29 46/46/30
f 5/47/61 47/48/31 6/49/67
f 6/18/68 31/19/15 5/24/63
f 6/49/69 47/48/31 7/51/76
f 7/12/71 31/19/15 6/18/66
f 7/12/70 33/2/17 32/10/16
f 7/51/73 47/48/31 48/50/32
f 7/51/72 49/52/33 8/53/79
f 8/5/81 33/2/17 7/12/77
f 8/53/80 49/52/33 1/55/38
f 9/70/86 13/82/107 16/64/122
f 9/37/83 19/38/3 10/39/90
f 9/37/82 25/34/9 18/36/2
f 10/81/91 12/86/100 9/70/84
f 10/1/92 19/4/3 11/7/96
f 11/85/93 12/86/98 10/81/89
f 11/7/95 19/4/3 20/8/4
f 11/7/94 21/15/5 12/13/99
f 12/29/102 21/30/5 13/31/108
f 13/82/106 9/70/85 12/86/101
f 13/31/103 21/30/5 22/32/6
f 13/31/104 23/34/7 14/33/110
f 14/71/112 16/64/121 13/82/105
f 14/16/113 23/14/7 15/22/118
f 15/66/116 16/64/120 14/71/111
f 15/22/114 23/14/7 24/21/8
f 15/22/115 25/27/9 16/28/119
f 16/35/123 25/34/9 9/37/88
f 17/72/1 42/65/26 49/67/33
f 17/72/1 43/69/27 42/65/26
f 17/72/1 44/80/28 43/69/27
f 17/72/1 47/79/31 46/83/30
f 17/72/1 48/68/32 47/79/31
f 18/36/2 19/38/3 9/37/87
f 18/101/2 34/100/18 19/102/3
f 19/102/3 34/100/18 35/97/19
f 19/102/3 36/104/20 20/105/4
f 20/8/4 21/15/5 11/7/97
f 20/105/4 36/104/20 21/108/5
f 21/108/5 36/104/20 37/110/21
f 21/108/5 38/114/22 22/111/6
f 22/32/6 23/34/7 13/31/109
f 22/111/6 38/114/22 23/112/7
f 23/112/7 38/114/22 39/113/23
f 23/112/7 40/109/24 24/107/8
f 24/21/8 25/27/9 15/22/117
f 24/107/8 40/109/24 25/106/9
f 25/106/9 34/100/18 18/101/2
f 25/106/9 40/109/24 41/103/25
f 26/76/10 27/63/11 34/75/18
f 26/3/10 33/2/17 1/6/41
f 27/94/11 36/95/20 35/92/19
f 28/20/12 27/9/11 3/17/52
f 28/96/12 29/99/13 36/95/20
f 29/60/13 38/74/22 37/61/21
f 30/26/14 29/25/13 5/24/62
f 30/73/14 31/87/15 38/74/22
f 31/58/15 40/78/24 39/59/23
f 32/10/16 31/19/15 7/12/74
f 32/77/16 33/89/17 40/78/24
f 33/91/17 34/75/18 41/90/25
f 34/75/18 33/91/17 26/76/10
f 35/62/19 34/75/18 27/63/11
f 35/97/19 36/104/20 19/102/3
f 36/95/20 27/94/11 28/96/12
f 37/98/21 36/95/20 29/99/13
f 37/110/21 38/114/22 21/108/5
f 38/74/22 29/60/13 30/73/14
f 39/88/23 38/74/22 31/87/15
f 39/113/23 40/109/24 23/112/7
f 40/78/24 31/58/15 32/77/16
f 41/103/25 34/100/18 25/106/9
f 41/93/25 40/78/24 33/89/17
f 42/54/26 43/56/27 1/55/39
f 44/42/28 45/44/29 3/43/51
f 45/84/29 44/80/28 17/72/1
f 46/83/30 45/84/29 17/72/1
f 46/46/30 47/48/31 5/47/64
f 48/50/32 49/52/33 7/51/75
f 49/67/33 48/68/32 17/72/1
