# Exported from Wings 3D 0.98.29b
mtllib turret.mtl
o cube5
#16 vertices, 28 faces
v -0.13247535 -0.18000000 -2.1737282e-2
v -0.13247535 -0.18000000 0.12826272
v 0.11165549 -0.18000000 0.12826272
v 0.11165549 -0.18000000 -2.1737282e-2
v -0.13247535 0.18000000 -2.1737282e-2
v -0.13247535 0.18000000 0.12826272
v 0.11165549 0.18000000 0.12826272
v 0.11165549 0.18000000 -2.1737282e-2
v 0.27035776 -7.8120000e-2 8.2230357e-2
v 0.27035776 -7.8120000e-2 -2.1737282e-2
v 0.27035776 7.8120000e-2 -2.1737282e-2
v 0.27035776 7.8120000e-2 8.2230357e-2
v -0.18827259 -9.5700000e-2 -2.1737282e-2
v -0.18827259 -9.5700000e-2 9.3834632e-2
v -0.18827259 9.5700000e-2 9.3834632e-2
v -0.18827259 9.5700000e-2 -2.1737282e-2
vn 0.0000000e+0 -1.00000000 0.0000000e+0
vn -4.0608373e-17 -6.1494769e-17 -1.00000000
vn -0.83388450 -0.55193898 0.0000000e+0
vn -4.0608373e-17 -6.1494769e-17 -1.00000000
vn 0.0000000e+0 -1.00000000 0.0000000e+0
vn -4.0608373e-17 -6.1494769e-17 -1.00000000
vn -4.0608373e-17 -6.1494769e-17 -1.00000000
vn -0.83388450 -0.55193898 0.0000000e+0
vn 0.0000000e+0 -1.00000000 0.0000000e+0
vn 0.0000000e+0 0.0000000e+0 1.00000000
vn -0.52510733 0.0000000e+0 0.85103601
vn -0.83388450 -0.55193898 0.0000000e+0
vn 0.0000000e+0 -1.00000000 0.0000000e+0
vn 0.0000000e+0 0.0000000e+0 1.00000000
vn 0.54022138 -0.84152294 0.0000000e+0
vn 0.27857304 0.0000000e+0 0.96041505
vn 0.0000000e+0 -1.00000000 0.0000000e+0
vn 0.27857304 0.0000000e+0 0.96041505
vn 0.54022138 -0.84152294 0.0000000e+0
vn 0.0000000e+0 0.0000000e+0 1.00000000
vn 0.0000000e+0 -5.7824116e-17 -1.00000000
vn 0.0000000e+0 -5.7824116e-17 -1.00000000
vn 0.0000000e+0 -1.00000000 0.0000000e+0
vn 0.54022138 -0.84152294 0.0000000e+0
vn 0.0000000e+0 1.00000000 0.0000000e+0
vn 0.0000000e+0 -5.7824116e-17 -1.00000000
vn -0.83388450 0.55193898 0.0000000e+0
vn 0.0000000e+0 -5.7824116e-17 -1.00000000
vn 0.0000000e+0 0.0000000e+0 1.00000000
vn 0.0000000e+0 1.00000000 0.0000000e+0
vn -0.52510733 0.0000000e+0 0.85103601
vn -0.83388450 0.55193898 0.0000000e+0
vn 0.0000000e+0 1.00000000 0.0000000e+0
vn -0.83388450 0.55193898 0.0000000e+0
vn -0.52510733 0.0000000e+0 0.85103601
vn 0.0000000e+0 0.0000000e+0 1.00000000
vn 0.27857304 0.0000000e+0 0.96041505
vn 0.0000000e+0 1.00000000 0.0000000e+0
vn 0.54022138 0.84152294 0.0000000e+0
vn 0.0000000e+0 0.0000000e+0 1.00000000
vn -8.7451026e-18 -5.4471028e-17 -1.00000000
vn 0.0000000e+0 1.00000000 0.0000000e+0
vn -8.7451026e-18 -5.4471028e-17 -1.00000000
vn 0.54022138 0.84152294 0.0000000e+0
vn -8.7451026e-18 -5.4471028e-17 -1.00000000
vn 0.0000000e+0 1.00000000 0.0000000e+0
vn 0.54022138 0.84152294 0.0000000e+0
vn -8.7451026e-18 -5.4471028e-17 -1.00000000
vn 1.00000000 0.0000000e+0 0.0000000e+0
vn 0.54022138 -0.84152294 0.0000000e+0
vn 0.27857304 0.0000000e+0 0.96041505
vn 1.00000000 1.1548848e-16 0.0000000e+0
vn 0.54022138 -0.84152294 0.0000000e+0
vn -1.7490205e-17 -5.1117940e-17 -1.00000000
vn 1.00000000 1.1548848e-16 0.0000000e+0
vn -1.7490205e-17 -5.1117940e-17 -1.00000000
vn 0.54022138 -0.84152294 0.0000000e+0
vn 0.54022138 0.84152294 0.0000000e+0
vn 1.00000000 2.3097697e-16 0.0000000e+0
vn -3.4980411e-17 -4.4411763e-17 -1.00000000
vn 1.00000000 1.1548848e-16 0.0000000e+0
vn 0.54022138 0.84152294 0.0000000e+0
vn 0.27857304 0.0000000e+0 0.96041505
vn 0.27857304 0.0000000e+0 0.96041505
vn 1.00000000 1.1548848e-16 0.0000000e+0
vn 0.54022138 0.84152294 0.0000000e+0
vn -1.00000000 3.1368663e-16 0.0000000e+0
vn -0.83388450 -0.55193898 0.0000000e+0
vn -1.6243349e-16 -7.2506728e-17 -1.00000000
vn -1.00000000 1.5684332e-16 0.0000000e+0
vn -0.83388450 -0.55193898 0.0000000e+0
vn -0.52510733 0.0000000e+0 0.85103601
vn -1.00000000 1.5684332e-16 0.0000000e+0
vn -0.52510733 0.0000000e+0 0.85103601
vn -0.83388450 -0.55193898 0.0000000e+0
vn -0.83388450 0.55193898 0.0000000e+0
vn -1.00000000 0.0000000e+0 0.0000000e+0
vn -0.52510733 0.0000000e+0 0.85103601
vn -1.00000000 1.5684332e-16 0.0000000e+0
vn -0.83388450 0.55193898 0.0000000e+0
vn -8.1216745e-17 -6.5165422e-17 -1.00000000
vn -0.83388450 0.55193898 0.0000000e+0
vn -1.00000000 1.5684332e-16 0.0000000e+0
vn -8.1216745e-17 -6.5165422e-17 -1.00000000
g cube5_default
usemtl default
f 1//1 3//13 2//9
f 1//2 8//41 4//21
f 1//4 16//81 5//26
f 2//12 14//75 1//8
f 3//14 6//29 2//10
f 3//16 12//63 7//37
f 4//23 3//17 1//5
f 4//24 10//57 3//19
f 5//28 8//48 1//7
f 5//27 16//82 6//34
f 6//30 8//42 5//25
f 6//31 14//72 2//11
f 7//40 6//36 3//20
f 7//38 8//46 6//33
f 7//39 12//66 8//47
f 8//43 10//54 4//22
f 9//50 3//15 10//53
f 9//51 12//64 3//18
f 10//56 8//45 11//60
f 10//52 12//61 9//49
f 11//58 8//44 12//62
f 11//59 12//65 10//55
f 13//68 1//3 14//71
f 13//69 16//84 1//6
f 14//74 6//35 15//78
f 14//70 16//79 13//67
f 15//76 6//32 16//80
f 15//77 16//83 14//73
