# Exported from Wings 3D 0.98.32a
mtllib upper_leg.mtl
o cube2
#40 vertices, 76 faces
v -2.6141997e-2 -2.8800000e-2 -0.30000000
v -4.0000000e-2 -4.0000000e-2 -1.0000000e-2
v 4.0000000e-2 -4.0000000e-2 -1.0000000e-2
v 3.1458003e-2 -2.8800000e-2 -0.30000000
v -2.6141997e-2 2.8800000e-2 -0.30000000
v -4.0000000e-2 4.0000000e-2 -1.0000000e-2
v 4.0000000e-2 4.0000000e-2 -1.0000000e-2
v 3.1458003e-2 2.8800000e-2 -0.30000000
v -3.9898573e-2 -4.8000000e-2 -0.20000000
v 5.6101427e-2 -4.8000000e-2 -0.20000000
v 4.7464336e-2 -6.1230318e-19 -1.0000000e-2
v 3.6832325e-2 -1.8369095e-17 -0.30000000
v -3.9898573e-2 4.8000000e-2 -0.20000000
v 5.6101427e-2 4.8000000e-2 -0.20000000
v 6.5058630e-2 -1.2246064e-17 -0.20000000
v 2.6713534e-2 -2.2579200e-2 -0.38000000
v -1.8444866e-2 -2.2579200e-2 -0.38000000
v -1.8444866e-2 2.2579200e-2 -0.38000000
v 2.6713534e-2 2.2579200e-2 -0.38000000
v 3.0927002e-2 -2.3267521e-17 -0.38000000
v -3.5347813e-2 -3.3928598e-2 -1.1601749e-3
v 3.4743294e-2 -3.3928598e-2 -1.1601749e-3
v 4.1074655e-2 -7.1037875e-20 -1.1601749e-3
v 3.4743294e-2 3.3928598e-2 -1.1601749e-3
v -3.5347813e-2 3.3928598e-2 -1.1601749e-3
v -2.2120128e-2 -3.3928598e-2 0.11779540
v 2.6569246e-2 -3.3928598e-2 6.7376076e-2
v 3.0967379e-2 3.8465912e-18 6.2821676e-2
v 2.6569246e-2 3.3928598e-2 6.7376076e-2
v -2.2120128e-2 3.3928598e-2 0.11779540
v -1.1816380e-2 -2.0514985e-2 0.10049263
v 1.8977604e-2 -2.0514985e-2 6.8604527e-2
v 2.1636943e-2 4.3551829e-18 6.5850701e-2
v 1.8977604e-2 2.0514985e-2 6.8604527e-2
v -1.1816380e-2 2.0514985e-2 0.10049263
v -1.1816380e-2 -2.0514985e-2 9.2137074e-2
v 1.8977604e-2 -2.0514985e-2 6.0248971e-2
v 2.1636943e-2 3.8435696e-18 5.7495145e-2
v 1.8977604e-2 2.0514985e-2 6.0248971e-2
v -1.1816380e-2 2.0514985e-2 9.2137074e-2
vn 0.93593734 -1.8239372e-17 0.35216657
vn 0.98482169 -2.8359568e-17 -0.17356912
vn 0.99581807 -2.1523582e-17 -9.1358532e-2
vn 0.92417548 1.4469857e-17 0.38196817
vn 0.0000000e+0 -0.99108243 -0.13325019
vn -0.99324323 0.0000000e+0 -0.11605121
vn 0.0000000e+0 -0.99108243 -0.13325019
vn -0.99324323 0.0000000e+0 -0.11605121
vn 0.0000000e+0 -0.99108243 -0.13325019
vn 0.0000000e+0 -0.99108243 -0.13325019
vn -0.97087107 -4.0152473e-17 0.23960251
vn 0.0000000e+0 -0.97447186 0.22450968
vn 0.0000000e+0 -0.97447186 0.22450968
vn -0.97087107 -4.0152473e-17 0.23960251
vn 0.0000000e+0 -0.97447186 0.22450968
vn 0.92198095 -0.17204939 0.34691517
vn 0.0000000e+0 -0.91411822 0.40544776
vn 0.0000000e+0 -0.91411822 0.40544776
vn 0.92198095 -0.17204939 0.34691517
vn 0.0000000e+0 -0.91411822 0.40544776
vn 0.96860093 -0.18074907 -0.17071031
vn 0.0000000e+0 -0.99108243 -0.13325019
vn 0.0000000e+0 -0.99108243 -0.13325019
vn 0.96860093 -0.18074907 -0.17071031
vn 0.0000000e+0 0.99108243 -0.13325019
vn -0.99324323 0.0000000e+0 -0.11605121
vn -0.99324323 0.0000000e+0 -0.11605121
vn 0.0000000e+0 0.99108243 -0.13325019
vn 0.0000000e+0 0.99108243 -0.13325019
vn 0.0000000e+0 0.99108243 -0.13325019
vn -0.99324323 0.0000000e+0 -0.11605121
vn -0.99324323 0.0000000e+0 -0.11605121
vn 0.0000000e+0 0.94861887 0.31642098
vn -0.97087107 -1.2983945e-17 0.23960251
vn 0.0000000e+0 0.94861887 0.31642098
vn -0.97087107 -1.2983945e-17 0.23960251
vn 0.0000000e+0 0.94861887 0.31642098
vn -0.97087107 -1.2983945e-17 0.23960251
vn -0.97087107 -1.2983945e-17 0.23960251
vn 0.0000000e+0 0.94861887 0.31642098
vn 0.0000000e+0 0.94861887 0.31642098
vn 0.92198095 0.17204939 0.34691517
vn 0.92198095 0.17204939 0.34691517
vn 0.0000000e+0 0.94861887 0.31642098
vn 0.0000000e+0 0.99108243 -0.13325019
vn 0.96860093 0.18074907 -0.17071031
vn 0.96860093 0.18074907 -0.17071031
vn 0.0000000e+0 0.99108243 -0.13325019
vn 0.0000000e+0 -0.99727760 -7.3738584e-2
vn -0.99764652 -4.5756630e-18 -6.8566923e-2
vn -0.99764652 -4.5756630e-18 -6.8566923e-2
vn -0.99764652 -4.5756630e-18 -6.8566923e-2
vn 0.0000000e+0 -0.99727760 -7.3738584e-2
vn -0.99764652 -4.5756630e-18 -6.8566923e-2
vn 0.0000000e+0 -0.99727760 -7.3738584e-2
vn 0.97905711 -0.18270028 -8.9820845e-2
vn 0.0000000e+0 -0.99727760 -7.3738584e-2
vn 0.97905711 -0.18270028 -8.9820845e-2
vn 0.0000000e+0 -0.99727760 -7.3738584e-2
vn 0.97905711 -0.18270028 -8.9820845e-2
vn 0.0000000e+0 -0.99727760 -7.3738584e-2
vn 0.97905711 -0.18270028 -8.9820845e-2
vn 0.0000000e+0 0.99727760 -7.3738584e-2
vn 0.0000000e+0 0.99727760 -7.3738584e-2
vn -0.99764652 0.0000000e+0 -6.8566923e-2
vn -0.99764652 0.0000000e+0 -6.8566923e-2
vn 0.0000000e+0 0.99727760 -7.3738584e-2
vn 0.97905711 0.18270028 -8.9820845e-2
vn 0.97905711 0.18270028 -8.9820845e-2
vn 0.0000000e+0 0.99727760 -7.3738584e-2
vn 0.97905711 0.18270028 -8.9820845e-2
vn 0.0000000e+0 0.99727760 -7.3738584e-2
vn 0.97905711 0.18270028 -8.9820845e-2
vn 0.0000000e+0 0.99727760 -7.3738584e-2
vn 0.0000000e+0 -0.99699033 -7.7525968e-2
vn 0.98045267 -0.18296071 -7.2373619e-2
vn 0.0000000e+0 0.0000000e+0 -1.00000000
vn 0.98045267 -0.18296071 -7.2373619e-2
vn 0.0000000e+0 -0.99699033 -7.7525968e-2
vn -0.99540331 0.0000000e+0 -9.5771867e-2
vn 0.0000000e+0 0.0000000e+0 -1.00000000
vn 0.0000000e+0 0.0000000e+0 -1.00000000
vn -0.99540331 0.0000000e+0 -9.5771867e-2
vn 0.0000000e+0 -0.99699033 -7.7525968e-2
vn 0.0000000e+0 0.0000000e+0 -1.00000000
vn 0.0000000e+0 0.99699033 -7.7525968e-2
vn 0.0000000e+0 0.0000000e+0 -1.00000000
vn -0.99540331 0.0000000e+0 -9.5771867e-2
vn 0.0000000e+0 0.0000000e+0 -1.00000000
vn 0.0000000e+0 0.99699033 -7.7525968e-2
vn 0.98045267 0.18296071 -7.2373619e-2
vn 0.0000000e+0 0.99699033 -7.7525968e-2
vn 0.98045267 0.18296071 -7.2373619e-2
vn 0.0000000e+0 0.0000000e+0 -1.00000000
vn 0.99728664 -8.4696383e-17 -7.3616245e-2
vn 0.0000000e+0 0.0000000e+0 -1.00000000
vn 0.0000000e+0 0.0000000e+0 -1.00000000
vn 0.99728664 -8.4696383e-17 -7.3616245e-2
vn 1.4178877e-17 -0.95506598 0.29639328
vn -0.95604442 1.4231850e-18 0.29322188
vn 1.4178877e-17 -0.95506598 0.29639328
vn -0.95604442 1.4231850e-18 0.29322188
vn -0.95604442 1.4231850e-18 0.29322188
vn -0.95604442 1.4231850e-18 0.29322188
vn 1.4178877e-17 -0.95506598 0.29639328
vn 1.4178877e-17 -0.95506598 0.29639328
vn 0.91713321 -0.15259520 0.36821377
vn 0.91713321 -0.15259520 0.36821377
vn 0.91713321 -0.15259520 0.36821377
vn 0.0000000e+0 -0.95506598 0.29639328
vn 0.0000000e+0 -0.95506598 0.29639328
vn 0.91713321 -0.15259520 0.36821377
vn 0.91713321 0.15259520 0.36821377
vn -3.1310443e-17 0.95506598 0.29639328
vn 0.91713321 0.15259520 0.36821377
vn -3.1310443e-17 0.95506598 0.29639328
vn 0.91713321 0.15259520 0.36821377
vn -3.1310443e-17 0.95506598 0.29639328
vn -3.1310443e-17 0.95506598 0.29639328
vn 0.91713321 0.15259520 0.36821377
vn -0.95604442 3.3222712e-17 0.29322188
vn -0.95604442 3.3222712e-17 0.29322188
vn 0.0000000e+0 0.95506598 0.29639328
vn 0.0000000e+0 0.95506598 0.29639328
vn 5.4167051e-17 -1.00000000 6.7145699e-17
vn 0.78549407 0.16575602 0.59625834
vn -0.99387419 0.0000000e+0 0.11051735
vn 0.78549407 0.16575602 0.59625834
vn 2.7083526e-17 -1.00000000 1.2385190e-16
vn 0.98670311 -0.11210865 0.11768018
vn 0.57421550 0.25369802 0.77840470
vn 0.57421550 0.25369802 0.77840470
vn 0.57421550 0.25369802 0.77840470
vn 2.7083526e-17 -1.00000000 1.2385190e-16
vn 0.99054911 -5.6163400e-17 0.13715851
vn 0.99054911 -6.3183825e-17 0.13715851
vn 0.30877561 1.7413741e-17 0.95113491
vn 0.30877561 1.3930993e-17 0.95113491
vn 0.30877561 1.7413741e-17 0.95113491
vn 0.99054911 -6.3183825e-17 0.13715851
vn 0.30877561 1.3930993e-17 0.95113491
vn 0.99054911 -6.3183825e-17 0.13715851
vn -1.1961416e-16 1.00000000 0.0000000e+0
vn 0.51219516 -0.21370126 0.83185809
vn 0.51219516 -0.21370126 0.83185809
vn 0.98670311 0.11210865 0.11768018
vn -5.9807079e-17 1.00000000 -5.2014275e-17
vn -0.99387419 1.8874851e-17 0.11051735
vn 0.78549407 -0.16575602 0.59625834
vn 0.78549407 -0.16575602 0.59625834
vn -0.99387419 1.8874851e-17 0.11051735
vn 0.78549407 -0.16575602 0.59625834
vn 0.78549407 -0.16575602 0.59625834
vn -5.9807079e-17 1.00000000 -5.2014275e-17
vn 0.90235657 0.11543511 0.41524372
vn 0.90235657 0.11543511 0.41524372
vn 1.1266639e-16 1.00000000 0.0000000e+0
vn 0.90235657 0.11543511 0.41524372
vn 0.90235657 0.11543511 0.41524372
vn 0.90235657 0.11543511 0.41524372
vn 0.90235657 0.11543511 0.41524372
vn 0.44592179 0.17193002 0.87840413
vn 1.1266639e-16 1.00000000 0.0000000e+0
vn -0.99170257 0.12855350 0.0000000e+0
vn -0.99170257 0.12855350 0.0000000e+0
vn 0.44592179 0.17193002 0.87840413
vn 1.1266639e-16 1.00000000 0.0000000e+0
vn 0.44592179 0.17193002 0.87840413
vn 0.30877561 0.0000000e+0 0.95113491
vn -1.00000000 0.0000000e+0 0.0000000e+0
vn -1.00000000 0.0000000e+0 0.0000000e+0
vn 0.30877561 0.0000000e+0 0.95113491
vn 0.51219516 -0.21370126 0.83185809
vn 0.51219516 -0.21370126 0.83185809
vn -0.99170257 -0.12855350 0.0000000e+0
vn -1.1266639e-16 -1.00000000 0.0000000e+0
vn -1.1266639e-16 -1.00000000 0.0000000e+0
vn -0.99170257 -0.12855350 0.0000000e+0
vn 0.51219516 -0.21370126 0.83185809
vn 0.51219516 -0.21370126 0.83185809
vn 0.90235657 -0.11543511 0.41524372
vn 0.90235657 -0.11543511 0.41524372
vn -1.1266639e-16 -1.00000000 0.0000000e+0
vn 0.90235657 -0.11543511 0.41524372
vn 1.1266639e-16 1.00000000 0.0000000e+0
vn 0.86888924 -6.3715546e-17 0.49500655
vn 0.86888924 -6.3715546e-17 0.49500655
vn 0.86888924 -6.3715546e-17 0.49500655
vn 1.1266639e-16 1.00000000 0.0000000e+0
vn -0.99170257 0.12855350 0.0000000e+0
vn 0.71933980 -1.7882809e-16 0.69465837
vn 1.1266639e-16 1.00000000 0.0000000e+0
vn 0.71933980 4.9674469e-18 0.69465837
vn -1.00000000 0.0000000e+0 0.0000000e+0
vn -1.00000000 0.0000000e+0 0.0000000e+0
vn 0.71933980 4.9674469e-18 0.69465837
vn 0.71933980 4.9674469e-18 0.69465837
vn -1.00000000 0.0000000e+0 0.0000000e+0
vn -1.00000000 0.0000000e+0 0.0000000e+0
vn 0.71933980 1.9373043e-16 0.69465837
vn -1.1266639e-16 -1.00000000 0.0000000e+0
vn -0.99170257 -0.12855350 0.0000000e+0
vn 0.92718385 5.2236250e-17 0.37460659
vn -1.1266639e-16 -1.00000000 0.0000000e+0
vn 0.92718385 5.2236250e-17 0.37460659
vn 0.92718385 5.2236250e-17 0.37460659
vn 0.92718385 5.2236250e-17 0.37460659
vn -1.1266639e-16 -1.00000000 0.0000000e+0
g cube2_default
usemtl default
f 1//5 10//55 9//49
f 1//7 16//75 4//22
f 2//12 10//57 3//17
f 2//14 21//103 6//38
f 3//18 21//99 2//13
f 4//23 10//59 1//9
f 4//24 16//78 12//2
f 5//32 9//54 13//66
f 5//25 14//70 8//45
f 5//27 17//80 1//8
f 6//34 9//50 2//11
f 6//33 14//67 13//63
f 6//35 24//114 7//41
f 7//42 11//1 14//73
f 7//44 14//74 6//40
f 7//43 24//117 11//1
f 8//47 14//71 12//2
f 8//48 19//92 5//30
f 9//51 5//26 1//6
f 9//53 10//61 2//15
f 10//56 11//1 3//16
f 11//1 10//62 15//3
f 11//1 22//107 3//19
f 12//2 10//58 4//21
f 12//2 14//68 15//3
f 12//2 19//91 8//46
f 13//65 9//52 6//39
f 13//64 14//72 5//29
f 15//3 10//60 12//2
f 15//3 14//69 11//1
f 16//79 1//10 17//84
f 17//83 5//31 18//88
f 17//81 20//96 16//77
f 18//86 5//28 19//90
f 18//87 20//97 17//82
f 19//93 12//2 20//98
f 19//89 20//94 18//85
f 20//95 12//2 16//76
f 21//106 3//20 22//111
f 21//102 30//148 25//122
f 22//112 11//1 23//4
f 22//110 27//134 21//105
f 23//4 11//1 24//113
f 23//4 28//140 22//109
f 24//118 6//37 25//123
f 24//115 28//136 23//4
f 25//121 6//36 21//100
f 25//124 30//154 24//119
f 26//125 21//101 27//129
f 26//127 30//151 21//104
f 26//128 31//159 30//152
f 27//130 22//108 28//135
f 27//131 31//155 26//126
f 28//142 24//120 29//146
f 28//137 32//162 27//132
f 29//143 24//116 30//147
f 29//145 34//179 28//141
f 30//149 34//174 29//144
f 31//161 27//133 32//168
f 31//158 40//205 35//182
f 32//166 28//139 33//172
f 32//163 36//185 31//157
f 33//169 28//138 34//173
f 33//171 38//199 32//165
f 34//180 30//153 35//184
f 34//175 38//195 33//170
f 35//181 30//150 31//156
f 35//183 40//208 34//177
f 36//189 32//167 37//192
f 36//188 38//197 40//207
f 36//186 40//206 31//160
f 37//190 32//164 38//194
f 37//191 38//196 36//187
f 38//198 34//178 39//202
f 39//201 34//176 40//204
f 39//200 40//203 38//193
